<svg width="1075" height="271" viewBox="0 0 1075 271" fill="none" xmlns="http://www.w3.org/2000/svg">
<path d="M174.143 223.409C174.143 193.838 195.486 173.933 225.958 173.933C256.43 173.933 277.002 193.086 277.002 223.218V268.231H250.216V252.98C245.173 264.329 234.302 270.654 220.529 270.654C199.186 270.654 174.143 255.403 174.143 223.409ZM247.888 222.287C247.888 209.076 238.959 199.971 225.759 199.971C212.559 199.971 203.63 209.089 203.63 222.287C203.63 235.485 212.559 244.602 225.759 244.602C238.959 244.602 247.888 235.485 247.888 222.287Z" fill="#E1EDF0"/>
<path d="M288.035 231.952V143.8H317.15V176.342H362.565V201.45H317.15V231.952C317.15 241.618 321.807 244.601 328.208 244.601C334.608 244.601 339.266 241.63 339.266 231.952V229.159H368.38V231.952C368.38 258.169 352.08 270.64 328.208 270.64C304.336 270.64 288.035 258.182 288.035 231.952Z" fill="#E1EDF0"/>
<path d="M378.465 222.287C378.465 194.386 399.809 173.933 430.095 173.933C460.381 173.933 481.139 194.386 481.139 222.287V230.104H408.751C411.08 240.892 419.623 245.724 430.095 245.724C438.438 245.724 444.652 244.054 448.338 239.03H478.425C472.21 258.004 453.967 270.641 430.095 270.641C399.822 270.641 378.465 250.188 378.465 222.287ZM451.239 212.43C447.939 202.943 440.181 198.849 430.082 198.849C419.982 198.849 412.224 203.121 409.31 212.43H451.226H451.239Z" fill="#E1EDF0"/>
<path d="M650.44 136.173H679.555V186.198C685.383 178.202 693.527 173.918 703.427 173.918C723.613 173.918 745.157 186.937 745.157 220.601V268.216H716.042V220.601C716.042 206.09 708.67 199.957 697.798 199.957C686.927 199.957 679.555 206.46 679.555 220.601V268.216H650.44V136.173Z" fill="#E1EDF0"/>
<path d="M754.962 222.287C754.962 194.386 776.306 173.933 806.592 173.933C836.878 173.933 857.636 194.386 857.636 222.287V230.104H785.248C787.577 240.892 796.12 245.724 806.592 245.724C814.935 245.724 821.149 244.054 824.835 239.03H854.922C848.707 258.004 830.464 270.641 806.592 270.641C776.319 270.641 754.962 250.188 754.962 222.287ZM827.736 212.43C824.436 202.943 816.678 198.849 806.579 198.849C796.479 198.849 788.721 203.121 785.807 212.43H827.723H827.736Z" fill="#E1EDF0"/>
<path d="M864.89 222.287C864.89 194.386 886.234 173.933 916.52 173.933C943.106 173.933 962.521 189.745 966.592 212.43H937.092C933.792 204.804 926.22 199.972 916.52 199.972C903.32 199.972 894.391 209.089 894.391 222.287C894.391 235.485 903.32 244.602 916.52 244.602C926.22 244.602 933.792 239.769 937.092 232.144H966.592C962.521 254.829 943.106 270.641 916.52 270.641C886.247 270.641 864.89 250.188 864.89 222.287Z" fill="#E1EDF0"/>
<path d="M977.769 136.173H1006.88V215.029L1037.36 176.341H1073.46L1034.44 221.354L1075 268.216H1038.13L1006.88 228.597V268.216H977.769V136.173Z" fill="#E1EDF0"/>
<path d="M335.126 41.366L329.404 43.7505L311.214 12.815L321.646 6.71973L335.126 41.366Z" fill="#E1EDF0"/>
<path d="M354.713 36.5972L348.233 35.8831L347.248 0.293263L358.772 0L354.713 36.5972Z" fill="#E1EDF0"/>
<path d="M371.745 42.3215L366.915 39.7966L382.085 10.6719L391.452 15.8618L371.745 42.3215Z" fill="#E1EDF0"/>
<path d="M347.369 60.8754C345.36 59.2559 341.048 60.174 338.906 61.0411C331.76 63.9485 323.204 68.7686 316.95 72.7982C316.897 67.9143 316.538 62.3673 310.643 63.6552C305.719 64.7263 304.708 71.4465 302.685 75.425C300.184 80.3599 298.001 86.1236 299.492 91.4665C301.168 97.4471 307.888 98.8753 311.774 98.8625C319.904 98.8115 330.137 96.2612 335.326 89.5793C337.855 86.3149 337.828 80.3344 336.311 77.8988C340.476 75.221 348.127 69.1257 348.433 63.719C348.513 62.3673 348.087 61.4619 347.369 60.8754Z" fill="#E1EDF0"/>
<path d="M303.723 98.8373L303.563 73.334C243.551 73.334 171.788 97.3325 139.906 149.704C132.946 145.967 124.67 144.169 115.674 144.169C100.345 144.169 88.1163 149.933 80.5448 160.912C72.9734 149.946 60.7446 144.169 45.4154 144.169C19.8002 144.169 0 158.681 0 191.223V268.217H31.4435V191.223C31.4435 177.094 38.6291 172.07 48.13 172.07C57.6309 172.07 64.8165 177.094 64.8165 191.223V268.217H96.2599V191.223C96.2599 177.094 103.632 172.07 112.946 172.07C122.261 172.07 129.633 177.094 129.633 191.223V268.217H161.076V191.223C161.076 190.471 161.076 189.731 161.05 189.004C160.518 170.642 167.69 152.764 181.702 140.242C215.061 110.441 267.582 98.8373 303.723 98.8373Z" fill="#00C3CC"/>
<path d="M360.064 56.132C362.272 54.7675 366.424 56.2212 368.433 57.3434C375.127 61.1179 382.964 66.9454 388.633 71.7145C389.351 66.8689 390.442 61.4239 396.124 63.4259C400.875 65.0964 400.968 71.8803 402.432 76.0756C404.241 81.2782 405.652 87.2588 403.443 92.3722C400.968 98.0977 394.128 98.697 390.269 98.1869C382.219 97.1413 372.412 93.3413 368.167 86.0729C366.091 82.5151 366.93 76.5984 368.753 74.3668C364.974 71.1917 358.214 64.2038 358.626 58.8098C358.733 57.4581 359.278 56.6166 360.064 56.1192V56.132Z" fill="#E1EDF0"/>
<path d="M571.546 242.74C550.003 242.74 535.831 227.859 535.831 207.406C535.831 186.952 550.003 172.071 571.546 172.071C587.461 172.071 599.304 180.257 604.347 192.716H637.534C631.133 163.884 605.518 144.17 571.546 144.17C560.888 144.17 551.094 146.121 542.445 149.666C509.644 97.6906 428.474 80.3101 402.366 75.9873L397.829 101.121C439.345 107.994 486.597 124.737 511.64 152.459C516.923 158.299 517.774 166.83 513.57 173.435C507.435 183.088 504.015 194.654 504.015 207.393C504.015 243.85 531.959 270.628 571.56 270.628C605.518 270.628 631.146 250.914 637.547 222.083H604.36C599.317 234.541 587.474 242.728 571.56 242.728L571.546 242.74Z" fill="#00C3CC"/>
</svg>
