<svg width="30" height="31" viewBox="0 0 30 31" fill="none" xmlns="http://www.w3.org/2000/svg">
<path d="M18.2399 8.93769L18.8945 8.18169L18.8943 8.18159L18.2399 8.93769ZM18.4782 12.252L19.2342 12.9065L18.4782 12.252ZM15.0194 16.2468L14.2634 15.5923C14.0898 15.7928 14.0029 16.054 14.0219 16.3186C14.041 16.5831 14.1643 16.8292 14.3648 17.0028L15.0194 16.2468ZM17.4115 24.2497L18.1675 24.9043L18.1675 24.9042L17.4115 24.2497ZM16.4878 25.3165L17.2438 25.9711L16.4878 25.3165ZM4.21372 18.2403L3.23173 18.0513L3.23171 18.0514L4.21372 18.2403ZM5.08507 13.7115L4.10309 13.5225L4.10308 13.5225L5.08507 13.7115ZM8.1278 11.5549L8.27502 10.5658L8.27496 10.5658L8.1278 11.5549ZM10.4191 14.3823L9.42096 14.3221C9.39514 14.7499 9.64485 15.1466 10.0418 15.3084C10.4387 15.4701 10.8946 15.3609 11.1751 15.0369L10.4191 14.3823ZM14.9263 9.17666L14.1703 8.52209L14.9263 9.17666ZM18.2399 8.93769L17.5853 9.69369C18.1485 10.1813 18.2099 11.0342 17.7222 11.5974L18.4782 12.252L19.2342 12.9065C20.4449 11.5083 20.2927 9.39236 18.8945 8.18169L18.2399 8.93769ZM18.4782 12.252L17.7222 11.5974L14.2634 15.5923L15.0194 16.2468L15.7754 16.9014L19.2342 12.9065L18.4782 12.252ZM15.0194 16.2468L14.3648 17.0028L16.3021 18.6802L16.9566 17.9242L17.6112 17.1682L15.6739 15.4908L15.0194 16.2468ZM16.9566 17.9242L16.3021 18.6802C17.7568 19.9397 17.915 22.1403 16.6555 23.5952L17.4115 24.2497L18.1675 24.9042C20.15 22.6144 19.9011 19.1508 17.6112 17.1682L16.9566 17.9242ZM17.4115 24.2497L16.6555 23.5951L15.7318 24.662L16.4878 25.3165L17.2438 25.9711L18.1675 24.9043L17.4115 24.2497ZM16.4878 25.3165L15.7318 24.662C13.7666 26.9317 10.333 27.1786 8.0632 25.2134L7.40863 25.9694L6.75407 26.7254C9.8589 29.4137 14.5556 29.0759 17.2438 25.9711L16.4878 25.3165ZM7.40863 25.9694L8.0632 25.2134L7.3264 24.5755L6.67183 25.3315L6.01726 26.0875L6.75407 26.7254L7.40863 25.9694ZM6.67183 25.3315L7.3264 24.5755C5.56939 23.0542 4.75694 20.711 5.19573 18.4291L4.21372 18.2403L3.23171 18.0514C2.65795 21.0353 3.72034 24.0987 6.01726 26.0875L6.67183 25.3315ZM4.21372 18.2403L5.19571 18.4292L6.06706 13.9004L5.08507 13.7115L4.10308 13.5225L3.23173 18.0513L4.21372 18.2403ZM5.08507 13.7115L6.06705 13.9005C6.23869 13.0086 7.08279 12.4104 7.98064 12.544L8.1278 11.5549L8.27496 10.5658C6.31667 10.2744 4.47715 11.5789 4.10309 13.5225L5.08507 13.7115ZM8.1278 11.5549L7.98057 12.544C8.84949 12.6733 9.47384 13.4459 9.42096 14.3221L10.4191 14.3823L11.4173 14.4425C11.5324 12.5351 10.1732 10.8483 8.27502 10.5658L8.1278 11.5549ZM10.4191 14.3823L11.1751 15.0369L15.6823 9.83123L14.9263 9.17666L14.1703 8.52209L9.66314 13.7277L10.4191 14.3823ZM14.9263 9.17666L15.6823 9.83123C16.1702 9.2678 17.0225 9.20651 17.5854 9.69379L18.2399 8.93769L18.8943 8.18159C17.4958 6.97106 15.3807 7.1242 14.1703 8.52209L14.9263 9.17666Z" fill="#F5F8F8"/>
<path d="M18.8535 1L18.188 4.46001" stroke="#F5F8F8" stroke-width="2" stroke-linecap="round"/>
<path d="M25.957 7.15039L22.6278 8.30408" stroke="#F5F8F8" stroke-width="2" stroke-linecap="round"/>
<path d="M23.1738 3.1875L20.8675 5.85121" stroke="#F5F8F8" stroke-width="2" stroke-linecap="round"/>
</svg>
