<svg width="448" height="249" viewBox="0 0 448 249" fill="none" xmlns="http://www.w3.org/2000/svg">
<path d="M17.088 8.56V49.776H36.416V60.784H3.84V8.56H17.088ZM55.168 26.032H60.736V37.04H55.168V61.424H41.92V7.28H55.168V26.032ZM100.734 37.936L97.0215 39.216C96.7655 43.4827 96.1255 47.0453 95.1015 49.904C94.1202 52.72 92.8615 54.9813 91.3255 56.688C89.8322 58.3947 88.1255 59.6107 86.2055 60.336C84.3282 61.0613 82.3442 61.424 80.2535 61.424C77.9922 61.424 75.8375 60.9973 73.7895 60.144C71.7415 59.2907 69.9495 57.84 68.4135 55.792C66.8775 53.744 65.6402 51.0133 64.7015 47.6C63.8055 44.144 63.3575 39.8347 63.3575 34.672C63.3575 29.5093 63.8055 25.2213 64.7015 21.808C65.6402 18.352 66.8775 15.6 68.4135 13.552C69.9495 11.504 71.7415 10.0533 73.7895 9.2C75.8375 8.34666 77.9922 7.92 80.2535 7.92C82.2162 7.92 84.0935 8.24 85.8855 8.88C87.6775 9.52 89.2988 10.5867 90.7495 12.08C92.2428 13.5733 93.5015 15.5573 94.5255 18.032C95.5495 20.5067 96.2748 23.5787 96.7015 27.248L100.734 25.84V7.28H113.15V61.424H100.734V37.936ZM115.902 61.424V7.28H128.382V61.424H115.902ZM75.7095 34.672C75.7095 37.9573 75.8375 40.624 76.0935 42.672C76.3922 44.72 76.7548 46.32 77.1815 47.472C77.6508 48.624 78.1415 49.4133 78.6535 49.84C79.2082 50.224 79.7415 50.416 80.2535 50.416C80.7655 50.416 81.2775 50.224 81.7895 49.84C82.3442 49.4133 82.8348 48.6453 83.2615 47.536C83.6882 46.384 84.0295 44.784 84.2855 42.736C84.5842 40.6453 84.7335 37.936 84.7335 34.608C84.7335 31.3227 84.5842 28.656 84.2855 26.608C84.0295 24.56 83.6882 22.9813 83.2615 21.872C82.8348 20.72 82.3442 19.952 81.7895 19.568C81.2775 19.1413 80.7655 18.928 80.2535 18.928C79.7415 18.928 79.2082 19.1413 78.6535 19.568C78.1415 19.952 77.6508 20.72 77.1815 21.872C76.7548 23.024 76.3922 24.624 76.0935 26.672C75.8375 28.72 75.7095 31.3867 75.7095 34.672ZM165.986 61.424V38.832L162.466 40.048V60.784H150.05V19.568H133.09V8.56H162.466V27.952L165.986 26.736V7.28H178.402V61.424H165.986ZM193.634 61.424H181.154V7.28H193.634V61.424ZM352.026 45.104V51.76H388.058V62.704H338.778V45.104H352.026ZM352.41 20.72C355.397 20.72 357.957 20.9973 360.09 21.552C362.223 22.1067 363.973 22.8747 365.338 23.856C366.703 24.7947 367.685 25.9467 368.282 27.312C368.922 28.6347 369.242 30.0853 369.242 31.664C369.242 33.2853 368.922 34.7787 368.282 36.144C367.685 37.4667 366.703 38.6187 365.338 39.6C363.973 40.5387 362.223 41.2853 360.09 41.84C357.957 42.352 355.397 42.608 352.41 42.608C349.381 42.608 346.799 42.352 344.666 41.84C342.575 41.2853 340.847 40.5387 339.482 39.6C338.117 38.6187 337.114 37.4667 336.474 36.144C335.877 34.7787 335.578 33.2853 335.578 31.664C335.578 30.0853 335.877 28.6347 336.474 27.312C337.114 25.9467 338.117 24.7947 339.482 23.856C340.847 22.8747 342.575 22.1067 344.666 21.552C346.799 20.9973 349.381 20.72 352.41 20.72ZM387.418 30.896V47.408H374.17V7.28H387.418V19.888H392.986V30.896H387.418ZM359.002 9.2H370.778V18.928H333.978V9.2H345.754V4.848H359.002V9.2ZM352.41 28.464C351.13 28.464 350.127 28.7627 349.402 29.36C348.719 29.9147 348.378 30.6827 348.378 31.664C348.378 32.6453 348.719 33.4347 349.402 34.032C350.127 34.6293 351.13 34.928 352.41 34.928C353.69 34.928 354.671 34.6293 355.354 34.032C356.079 33.4347 356.442 32.6453 356.442 31.664C356.442 30.6827 356.079 29.9147 355.354 29.36C354.629 28.7627 353.647 28.464 352.41 28.464ZM57.088 123.624V145.704H6.528V123.624H57.088ZM17.088 99.624V101.672H37.696V110.376H17.088V112.36H38.336V121.064H3.84V90.92H37.696V99.624H17.088ZM57.088 90.28V121.384H43.84V90.28H57.088ZM19.776 132.648V136.68H43.84V132.648H19.776ZM63.8055 102.952C63.8055 100.733 64.2748 98.8347 65.2135 97.256C66.1948 95.6347 67.5175 94.312 69.1815 93.288C70.8455 92.264 72.8082 91.5173 75.0695 91.048C77.3308 90.5787 79.7628 90.344 82.3655 90.344C84.3282 90.344 86.1842 90.4933 87.9335 90.792C89.7255 91.048 91.3682 91.4533 92.8615 92.008C94.3548 92.5627 95.6562 93.288 96.7655 94.184C97.9175 95.0373 98.8562 96.0613 99.5815 97.256L105.278 95.976V90.28H118.526V131.624H105.278V106.92L99.7735 108.2C98.4508 110.76 96.2322 112.616 93.1175 113.768C90.0028 114.92 86.4188 115.496 82.3655 115.496C79.7628 115.496 77.3308 115.261 75.0695 114.792C72.8082 114.323 70.8455 113.576 69.1815 112.552C67.5175 111.528 66.1948 110.227 65.2135 108.648C64.2748 107.069 63.8055 105.171 63.8055 102.952ZM79.1015 132.392V134.76H119.166V145.704H65.8535V130.024H75.9015V127.464H62.8455V117.736H102.782V127.464H89.1495V132.392H79.1015ZM82.3655 106.408C84.0295 106.408 85.4375 106.152 86.5895 105.64C87.7415 105.085 88.3175 104.189 88.3175 102.952C88.3175 101.715 87.7415 100.819 86.5895 100.264C85.4375 99.7093 84.0295 99.432 82.3655 99.432C80.7442 99.432 79.3575 99.7093 78.2055 100.264C77.0962 100.819 76.5415 101.715 76.5415 102.952C76.5415 104.232 77.0962 105.128 78.2055 105.64C79.3575 106.152 80.7442 106.408 82.3655 106.408ZM125.883 120.36V111.848H181.243V120.36H125.883ZM164.859 130.92V129.32H129.019V122.728H178.107V137.512H142.267V139.112H178.747V145.704H129.019V130.92H164.859ZM129.019 100.072C129.019 98.152 129.595 96.5307 130.747 95.208C131.899 93.8853 133.52 92.8187 135.611 92.008C137.744 91.1547 140.326 90.5573 143.355 90.216C146.384 89.832 149.798 89.64 153.595 89.64C157.35 89.64 160.742 89.832 163.771 90.216C166.8 90.5573 169.382 91.1547 171.515 92.008C173.648 92.8187 175.27 93.8853 176.379 95.208C177.531 96.5307 178.107 98.152 178.107 100.072C178.107 101.992 177.531 103.592 176.379 104.872C175.27 106.109 173.648 107.112 171.515 107.88C169.424 108.605 166.864 109.117 163.835 109.416C160.806 109.672 157.392 109.8 153.595 109.8C149.798 109.8 146.384 109.672 143.355 109.416C140.326 109.117 137.744 108.605 135.611 107.88C133.52 107.112 131.899 106.109 130.747 104.872C129.595 103.592 129.019 101.992 129.019 100.072ZM153.595 101.672C157.222 101.672 159.995 101.587 161.915 101.416C163.878 101.245 164.859 100.797 164.859 100.072C164.859 99.3467 163.878 98.8987 161.915 98.728C159.995 98.5147 157.222 98.408 153.595 98.408C149.968 98.408 147.174 98.5147 145.211 98.728C143.248 98.8987 142.267 99.3467 142.267 100.072C142.267 100.797 143.248 101.245 145.211 101.416C147.174 101.587 149.968 101.672 153.595 101.672ZM203.658 127.464V118.376H216.074V116.584C212.447 116.115 209.781 115.24 208.074 113.96C206.41 112.68 205.578 110.931 205.578 108.712C205.578 105.939 206.965 103.869 209.738 102.504C212.511 101.139 216.927 100.456 222.986 100.456C229.087 100.456 233.525 101.139 236.298 102.504C239.114 103.869 240.522 105.939 240.522 108.712C240.522 111.016 239.626 112.808 237.834 114.088C236.042 115.368 233.205 116.221 229.322 116.648V118.376H242.314V127.464H203.658ZM244.81 145.704V140.328H207.306V130.024H258.058V145.704H244.81ZM258.058 113.896V127.784H244.81V90.28H258.058V102.888H263.626V113.896H258.058ZM229.642 91.048H242.058V99.112H203.978V91.048H216.394V87.848H229.642V91.048ZM222.986 107.048C222.346 107.048 221.663 107.069 220.938 107.112C220.255 107.155 219.615 107.24 219.018 107.368C218.463 107.496 217.994 107.667 217.61 107.88C217.269 108.093 217.098 108.371 217.098 108.712C217.098 109.053 217.269 109.331 217.61 109.544C217.994 109.757 218.463 109.928 219.018 110.056C219.615 110.184 220.255 110.291 220.938 110.376C221.663 110.419 222.346 110.44 222.986 110.44C223.626 110.44 224.287 110.419 224.97 110.376C225.695 110.333 226.335 110.248 226.89 110.12C227.487 109.992 227.978 109.821 228.362 109.608C228.746 109.352 228.938 109.053 228.938 108.712C228.938 108.371 228.746 108.093 228.362 107.88C227.978 107.667 227.487 107.496 226.89 107.368C226.293 107.24 225.653 107.155 224.97 107.112C224.287 107.069 223.626 107.048 222.986 107.048ZM320.776 90.28V129.128H307.528V90.28H320.776ZM283.464 126.824V134.76H321.416V145.704H270.216V126.824H283.464ZM265.608 106.984C265.608 104.381 266.077 102.056 267.016 100.008C267.954 97.9173 269.256 96.1467 270.92 94.696C272.584 93.2453 274.568 92.1573 276.872 91.432C279.176 90.664 281.714 90.28 284.488 90.28C287.261 90.28 289.8 90.664 292.104 91.432C294.408 92.1573 296.392 93.2453 298.056 94.696C299.72 96.1467 301.021 97.9173 301.96 100.008C302.898 102.056 303.368 104.381 303.368 106.984C303.368 109.587 302.898 111.912 301.96 113.96C301.021 116.008 299.72 117.757 298.056 119.208C296.392 120.616 294.408 121.704 292.104 122.472C289.8 123.24 287.261 123.624 284.488 123.624C281.714 123.624 279.176 123.24 276.872 122.472C274.568 121.704 272.584 120.616 270.92 119.208C269.256 117.757 267.954 116.008 267.016 113.96C266.077 111.912 265.608 109.587 265.608 106.984ZM284.488 113.256C285.256 113.256 286.002 113.128 286.728 112.872C287.496 112.573 288.157 112.168 288.712 111.656C289.309 111.101 289.778 110.44 290.12 109.672C290.504 108.904 290.696 108.008 290.696 106.984C290.696 105.96 290.504 105.064 290.12 104.296C289.778 103.485 289.309 102.824 288.712 102.312C288.157 101.757 287.496 101.352 286.728 101.096C286.002 100.797 285.256 100.648 284.488 100.648C283.72 100.648 282.952 100.797 282.184 101.096C281.458 101.352 280.797 101.757 280.2 102.312C279.645 102.824 279.176 103.485 278.792 104.296C278.45 105.064 278.28 105.96 278.28 106.984C278.28 108.008 278.45 108.904 278.792 109.672C279.176 110.44 279.645 111.101 280.2 111.656C280.797 112.168 281.458 112.573 282.184 112.872C282.952 113.128 283.72 113.256 284.488 113.256ZM345.285 144.424C342.981 144.424 340.805 144.104 338.757 143.464C336.709 142.824 334.917 141.779 333.381 140.328C331.888 138.92 330.693 137.085 329.797 134.824C328.901 132.52 328.453 129.747 328.453 126.504C328.453 123.261 328.901 120.509 329.797 118.248C330.693 115.987 331.888 114.152 333.381 112.744C334.917 111.293 336.709 110.248 338.757 109.608C340.805 108.925 342.981 108.584 345.285 108.584C347.589 108.584 349.765 108.925 351.813 109.608C353.861 110.248 355.632 111.293 357.125 112.744C358.661 114.152 359.877 115.987 360.773 118.248C361.669 120.509 362.117 123.261 362.117 126.504C362.117 129.747 361.669 132.52 360.773 134.824C359.877 137.085 358.661 138.92 357.125 140.328C355.632 141.779 353.861 142.824 351.813 143.464C349.765 144.104 347.589 144.424 345.285 144.424ZM380.293 109.032H385.861V120.04H380.293V144.424H367.045V90.28H380.293V109.032ZM351.877 94.76H363.653V105.768H326.853V94.76H338.629V89.128H351.877V94.76ZM345.285 133.416C346.522 133.416 347.44 132.883 348.037 131.816C348.634 130.707 348.933 128.936 348.933 126.504C348.933 124.072 348.634 122.323 348.037 121.256C347.44 120.147 346.522 119.592 345.285 119.592C344.048 119.592 343.13 120.147 342.533 121.256C341.936 122.323 341.637 124.072 341.637 126.504C341.637 128.936 341.936 130.707 342.533 131.816C343.13 132.883 344.048 133.416 345.285 133.416ZM428.547 102.568H392.707V91.56H441.795V127.976H428.547V102.568ZM389.571 133.416H406.787V113.32H420.035V133.416H444.931V144.424H389.571V133.416ZM1.92 189.984C1.92 187.381 2.34667 185.056 3.2 183.008C4.05333 180.917 5.26933 179.147 6.848 177.696C8.46933 176.245 10.3893 175.157 12.608 174.432C14.8693 173.664 17.3867 173.28 20.16 173.28C23.2747 173.28 26.048 173.771 28.48 174.752C30.912 175.691 32.9173 177.056 34.496 178.848L43.84 177.056V173.28H57.088V212.128H43.84V199.584L34.24 201.376C32.6187 203.083 30.6133 204.384 28.224 205.28C25.8773 206.176 23.1893 206.624 20.16 206.624C17.3867 206.624 14.8693 206.24 12.608 205.472C10.3893 204.704 8.46933 203.616 6.848 202.208C5.26933 200.757 4.05333 199.008 3.2 196.96C2.34667 194.912 1.92 192.587 1.92 189.984ZM19.776 209.824V217.76H57.728V228.704H6.528V209.824H19.776ZM20.16 196.256C21.7387 196.256 23.0613 195.723 24.128 194.656C25.1947 193.589 25.728 192.032 25.728 189.984C25.728 187.893 25.1947 186.315 24.128 185.248C23.0613 184.181 21.7387 183.648 20.16 183.648C18.5813 183.648 17.2587 184.181 16.192 185.248C15.1253 186.315 14.592 187.893 14.592 189.984C14.592 192.032 15.1253 193.589 16.192 194.656C17.2587 195.723 18.5813 196.256 20.16 196.256ZM38.4 189.984C38.4 190.283 38.3787 190.56 38.336 190.816C38.336 191.072 38.336 191.328 38.336 191.584L43.84 190.496V186.144L38.208 187.168C38.336 188.064 38.4 189.003 38.4 189.984ZM105.278 211.936V210.016H67.9655V202.592H118.526V219.36H81.2135V221.28H119.166V228.704H67.9655V211.936H105.278ZM65.2775 184.928V173.92H97.8535V199.584H84.6055V184.928H65.2775ZM99.4535 188.64L105.278 187.808V185.056L99.4535 185.888V177.12L105.278 176.288V173.28H118.526V200.352H105.278V196.576L99.4535 197.408V188.64ZM143.035 227.424C140.731 227.424 138.555 227.104 136.507 226.464C134.459 225.824 132.667 224.779 131.131 223.328C129.638 221.92 128.443 220.085 127.547 217.824C126.651 215.52 126.203 212.747 126.203 209.504C126.203 206.261 126.651 203.509 127.547 201.248C128.443 198.987 129.638 197.152 131.131 195.744C132.667 194.293 134.459 193.248 136.507 192.608C138.555 191.925 140.731 191.584 143.035 191.584C145.339 191.584 147.515 191.925 149.563 192.608C151.611 193.248 153.382 194.293 154.875 195.744C156.411 197.152 157.627 198.987 158.523 201.248C159.419 203.509 159.867 206.261 159.867 209.504C159.867 212.747 159.419 215.52 158.523 217.824C157.627 220.085 156.411 221.92 154.875 223.328C153.382 224.779 151.611 225.824 149.563 226.464C147.515 227.104 145.339 227.424 143.035 227.424ZM178.043 192.032H183.611V203.04H178.043V227.424H164.795V173.28H178.043V192.032ZM149.627 177.76H161.403V188.768H124.603V177.76H136.379V172.128H149.627V177.76ZM143.035 216.416C144.272 216.416 145.19 215.883 145.787 214.816C146.384 213.707 146.683 211.936 146.683 209.504C146.683 207.072 146.384 205.323 145.787 204.256C145.19 203.147 144.272 202.592 143.035 202.592C141.798 202.592 140.88 203.147 140.283 204.256C139.686 205.323 139.387 207.072 139.387 209.504C139.387 211.936 139.686 213.707 140.283 214.816C140.88 215.883 141.798 216.416 143.035 216.416ZM220.729 174.56V185.568H201.401V215.776H221.369V226.784H188.153V174.56H220.729ZM239.481 192.032H245.049V203.04H239.481V227.424H226.233V173.28H239.481V192.032ZM250.23 212.64V173.792H263.478V212.64H250.23ZM250.23 228.704V216.096H263.478V228.704H250.23Z" fill="#F5F8F8"/>
<path d="M257.944 29.808V40.816H232.792V61.36H219.48V10.352H259.16V21.36H232.792V29.808H257.944ZM278.23 10.352V61.36H264.918V10.352H278.23ZM314.112 21.36V61.36H300.8V21.36H284.608V10.352H330.304V21.36H314.112Z" fill="#00C3CC"/>
</svg>
