<svg width="1273" height="151" viewBox="0 0 1273 151" fill="none" xmlns="http://www.w3.org/2000/svg">
<g filter="url(#filter0_d_1686_4155)">
<rect x="516" y="10" width="241" height="131" rx="15" fill="#222829" shape-rendering="crispEdges"/>
<path d="M601.223 51.2471C601.194 50.8962 601.097 50.5954 600.933 50.3447C600.768 50.0941 600.528 49.9079 600.213 49.7861C599.905 49.6572 599.515 49.5928 599.042 49.5928C598.612 49.5928 598.251 49.6465 597.957 49.7539C597.671 49.8613 597.452 50.0117 597.302 50.2051C597.159 50.3913 597.087 50.6061 597.087 50.8496C597.073 51.2435 597.237 51.5586 597.581 51.7949C597.925 52.0312 598.473 52.2389 599.225 52.418L600.524 52.6758C602.179 53.0339 603.393 53.6104 604.166 54.4053C604.947 55.193 605.344 56.1992 605.358 57.4238C605.358 58.4336 605.104 59.293 604.596 60.002C604.094 60.7038 603.375 61.2445 602.437 61.624C601.506 61.9964 600.385 62.1826 599.074 62.1826C597.721 62.1826 596.546 61.9785 595.551 61.5703C594.555 61.1621 593.789 60.5462 593.252 59.7227C592.715 58.8919 592.436 57.8535 592.414 56.6074H596.324C596.353 57.0801 596.478 57.4847 596.7 57.8213C596.922 58.1507 597.23 58.4014 597.624 58.5732C598.018 58.738 598.483 58.8203 599.021 58.8203C599.479 58.8203 599.869 58.7594 600.191 58.6377C600.514 58.516 600.757 58.3512 600.922 58.1436C601.094 57.9359 601.18 57.696 601.18 57.4238C601.18 57.166 601.101 56.944 600.943 56.7578C600.786 56.5716 600.532 56.4069 600.181 56.2637C599.83 56.1133 599.368 55.9772 598.795 55.8555L597.227 55.501C595.801 55.2002 594.709 54.6953 593.95 53.9863C593.198 53.2702 592.822 52.3213 592.822 51.1396C592.822 50.1729 593.087 49.3206 593.617 48.583C594.147 47.8382 594.881 47.2617 595.819 46.8535C596.765 46.4382 597.842 46.2305 599.053 46.2305C600.285 46.2305 601.355 46.4382 602.265 46.8535C603.181 47.2617 603.89 47.8454 604.392 48.6045C604.893 49.3636 605.144 50.2445 605.144 51.2471H601.223ZM612.652 62.2148C611.413 62.2148 610.343 61.9642 609.44 61.4629C608.538 60.9616 607.847 60.2562 607.367 59.3467C606.887 58.4372 606.647 57.388 606.647 56.1992C606.647 54.9961 606.887 53.9434 607.367 53.041C607.847 52.1387 608.538 51.4368 609.44 50.9355C610.343 50.4342 611.413 50.1836 612.652 50.1836C613.884 50.1836 614.955 50.4342 615.864 50.9355C616.774 51.4368 617.468 52.1387 617.948 53.041C618.428 53.9434 618.668 54.9961 618.668 56.1992C618.668 57.388 618.428 58.4372 617.948 59.3467C617.468 60.2562 616.774 60.9616 615.864 61.4629C614.955 61.9642 613.884 62.2148 612.652 62.2148ZM612.695 59.207C613.075 59.207 613.401 59.0853 613.673 58.8418C613.945 58.5911 614.153 58.2367 614.296 57.7783C614.439 57.3128 614.511 56.7721 614.511 56.1562C614.511 55.5475 614.439 55.014 614.296 54.5557C614.153 54.0973 613.945 53.7464 613.673 53.5029C613.401 53.2594 613.075 53.1377 612.695 53.1377C612.294 53.1377 611.951 53.2594 611.664 53.5029C611.378 53.7464 611.159 54.0938 611.009 54.5449C610.866 54.9961 610.794 55.5332 610.794 56.1562C610.794 56.7865 610.866 57.3307 611.009 57.7891C611.159 58.2402 611.378 58.5911 611.664 58.8418C611.951 59.0853 612.294 59.207 612.695 59.207ZM624.469 62H620.408V46.4453H624.469V62ZM634.19 50.334H638.251V62H634.395V59.7979H634.266C634.008 60.5355 633.564 61.112 632.934 61.5273C632.303 61.9427 631.555 62.1504 630.688 62.1504C629.886 62.1504 629.177 61.9678 628.562 61.6025C627.953 61.2301 627.48 60.7109 627.144 60.0449C626.807 59.3789 626.639 58.6198 626.639 57.7676V50.334H630.699V56.9297C630.699 57.3236 630.764 57.6637 630.893 57.9502C631.029 58.2367 631.226 58.4587 631.483 58.6162C631.741 58.7666 632.046 58.8418 632.396 58.8418C632.762 58.8418 633.08 58.7666 633.353 58.6162C633.625 58.4587 633.832 58.2331 633.976 57.9395C634.119 57.6387 634.19 57.2949 634.19 56.9082V50.334ZM647.242 53.2773H639.669V50.334H647.242V53.2773ZM645.223 47.541V58.2617C645.223 58.4408 645.251 58.5876 645.309 58.7021C645.373 58.8167 645.466 58.9027 645.588 58.96C645.71 59.0101 645.867 59.0387 646.061 59.0459C646.326 59.0602 646.773 59.0423 647.403 58.9922V62.0215C646.852 62.1217 646.211 62.1719 645.48 62.1719C644.528 62.1719 643.729 62.0465 643.085 61.7959C642.448 61.5452 641.964 61.1621 641.635 60.6465C641.305 60.1237 641.148 59.4648 641.162 58.6699V47.541H645.223ZM649.004 50.334H653.064V62H649.004V50.334ZM651.023 49.0664C650.658 49.0664 650.322 48.984 650.014 48.8193C649.706 48.6475 649.455 48.4183 649.262 48.1318C649.076 47.8454 648.982 47.5339 648.982 47.1973C648.982 46.8607 649.076 46.5492 649.262 46.2627C649.455 45.9691 649.706 45.7399 650.014 45.5752C650.322 45.4105 650.658 45.3281 651.023 45.3281C651.389 45.3281 651.725 45.4105 652.033 45.5752C652.341 45.7399 652.585 45.9691 652.764 46.2627C652.95 46.5492 653.043 46.8607 653.043 47.1973C653.043 47.5339 652.95 47.8454 652.764 48.1318C652.585 48.4183 652.341 48.6475 652.033 48.8193C651.725 48.984 651.389 49.0664 651.023 49.0664ZM660.799 62.2148C659.56 62.2148 658.489 61.9642 657.587 61.4629C656.685 60.9616 655.993 60.2562 655.514 59.3467C655.034 58.4372 654.794 57.388 654.794 56.1992C654.794 54.9961 655.034 53.9434 655.514 53.041C655.993 52.1387 656.685 51.4368 657.587 50.9355C658.489 50.4342 659.56 50.1836 660.799 50.1836C662.031 50.1836 663.101 50.4342 664.011 50.9355C664.92 51.4368 665.615 52.1387 666.095 53.041C666.575 53.9434 666.814 54.9961 666.814 56.1992C666.814 57.388 666.575 58.4372 666.095 59.3467C665.615 60.2562 664.92 60.9616 664.011 61.4629C663.101 61.9642 662.031 62.2148 660.799 62.2148ZM660.842 59.207C661.221 59.207 661.547 59.0853 661.819 58.8418C662.091 58.5911 662.299 58.2367 662.442 57.7783C662.586 57.3128 662.657 56.7721 662.657 56.1562C662.657 55.5475 662.586 55.014 662.442 54.5557C662.299 54.0973 662.091 53.7464 661.819 53.5029C661.547 53.2594 661.221 53.1377 660.842 53.1377C660.441 53.1377 660.097 53.2594 659.811 53.5029C659.524 53.7464 659.306 54.0938 659.155 54.5449C659.012 54.9961 658.94 55.5332 658.94 56.1562C658.94 56.7865 659.012 57.3307 659.155 57.7891C659.306 58.2402 659.524 58.5911 659.811 58.8418C660.097 59.0853 660.441 59.207 660.842 59.207ZM672.615 62H668.555V50.334H672.411V52.5254H672.519C672.776 51.8021 673.22 51.2327 673.851 50.8174C674.488 50.3949 675.236 50.1836 676.096 50.1836C676.912 50.1836 677.625 50.3698 678.233 50.7422C678.849 51.1074 679.326 51.6195 679.662 52.2783C679.999 52.9372 680.167 53.6927 680.167 54.5449V62H676.106V55.3828C676.106 54.9889 676.038 54.6523 675.902 54.373C675.773 54.0866 675.58 53.8682 675.322 53.7178C675.064 53.5602 674.749 53.4814 674.377 53.4814C674.026 53.4814 673.715 53.5602 673.442 53.7178C673.177 53.8682 672.973 54.0866 672.83 54.373C672.687 54.6595 672.615 55.0033 672.615 55.4043V62Z" fill="#00C3CC"/>
<path d="M615.504 106.797H613.16V89.0039H615.504V106.797ZM613.727 97.8809H610.709V95.8887H613.727V97.8809ZM611.441 105.938H609.156V89.3262H611.441V105.938ZM601.891 100.693C603.186 100.693 604.303 100.664 605.24 100.605C606.178 100.547 607.135 100.43 608.111 100.254L608.287 102.275C607.291 102.464 606.311 102.594 605.348 102.666C604.384 102.731 603.232 102.767 601.891 102.773H600.641V100.693H601.891ZM607.281 93.0859H603.141V101.699H600.641V91.084H607.281V93.0859ZM624.107 102.422H621.598V99.5215H624.107V102.422ZM631.646 106.797H629.127V89.0039H631.646V106.797ZM633.961 98.3105H630.787V96.2598H633.961V98.3105ZM617.223 101.777C619.378 101.784 621.354 101.758 623.15 101.699C624.947 101.634 626.646 101.491 628.248 101.27L628.414 103.086C627.249 103.301 626.035 103.464 624.771 103.574C623.515 103.678 622.337 103.747 621.236 103.779C620.143 103.805 618.915 103.818 617.555 103.818L617.223 101.777ZM628.102 92.9492H617.555V90.9961H628.102V92.9492ZM622.877 93.6621C623.723 93.6621 624.475 93.8021 625.133 94.082C625.79 94.362 626.305 94.7559 626.676 95.2637C627.053 95.765 627.242 96.3444 627.242 97.002C627.242 97.6465 627.053 98.2227 626.676 98.7305C626.305 99.2318 625.79 99.6257 625.133 99.9121C624.475 100.192 623.723 100.332 622.877 100.332C622.024 100.332 621.266 100.192 620.602 99.9121C619.938 99.6257 619.42 99.2318 619.049 98.7305C618.684 98.2292 618.502 97.653 618.502 97.002C618.502 96.3444 618.684 95.765 619.049 95.2637C619.42 94.7559 619.938 94.362 620.602 94.082C621.266 93.8021 622.024 93.6621 622.877 93.6621ZM622.877 95.5469C622.473 95.5469 622.118 95.6055 621.812 95.7227C621.513 95.8333 621.279 95.9993 621.109 96.2207C620.947 96.4355 620.865 96.696 620.865 97.002C620.865 97.3014 620.947 97.5618 621.109 97.7832C621.272 97.998 621.507 98.1608 621.812 98.2715C622.118 98.3822 622.473 98.4375 622.877 98.4375C623.274 98.4375 623.622 98.3822 623.922 98.2715C624.221 98.1608 624.452 97.998 624.615 97.7832C624.778 97.5618 624.859 97.3014 624.859 97.002C624.859 96.696 624.778 96.4355 624.615 96.2207C624.452 95.9993 624.221 95.8333 623.922 95.7227C623.622 95.6055 623.274 95.5469 622.877 95.5469ZM624.107 92.4316H621.598V89.1113H624.107V92.4316ZM654.215 102.021H651.725V89.043H654.215V102.021ZM654.703 106.494H642.311V104.482H654.703V106.494ZM644.83 105.547H642.311V100.752H644.83V105.547ZM645.641 91.7285C645.641 92.9264 645.449 94.0462 645.064 95.0879C644.687 96.1296 644.117 97.0443 643.355 97.832C642.6 98.6198 641.669 99.2057 640.562 99.5898L639.273 97.627C640.237 97.3079 641.041 96.8424 641.686 96.2305C642.33 95.612 642.805 94.9154 643.111 94.1406C643.417 93.3659 643.57 92.5618 643.57 91.7285V90.0195H645.641V91.7285ZM646.158 91.7285C646.158 92.5358 646.305 93.3073 646.598 94.043C646.891 94.7721 647.35 95.4232 647.975 95.9961C648.606 96.569 649.387 97.0085 650.318 97.3145L649.049 99.2871C647.949 98.916 647.027 98.3626 646.285 97.627C645.549 96.8848 644.996 96.0124 644.625 95.0098C644.254 94.0007 644.068 92.9069 644.068 91.7285V90.0195H646.158V91.7285ZM662.691 92.793C662.691 93.8477 662.506 94.834 662.135 95.752C661.764 96.6699 661.201 97.4674 660.445 98.1445C659.697 98.8151 658.772 99.3099 657.672 99.6289L656.51 97.6953C657.434 97.4219 658.209 97.0312 658.834 96.5234C659.465 96.0156 659.934 95.4427 660.24 94.8047C660.546 94.1602 660.699 93.4896 660.699 92.793V92.1191H662.691V92.793ZM663.17 92.793C663.17 93.4245 663.326 94.0365 663.639 94.6289C663.951 95.2148 664.423 95.7389 665.055 96.2012C665.686 96.6569 666.467 97.0052 667.398 97.2461L666.227 99.1699C665.12 98.8835 664.189 98.4277 663.434 97.8027C662.678 97.1777 662.109 96.4355 661.725 95.5762C661.34 94.7103 661.148 93.7826 661.148 92.793V92.1191H663.17V92.793ZM666.754 92.8418H657.115V90.8789H666.754V92.8418ZM663.199 91.6602H660.699V88.9453H663.199V91.6602ZM669.713 95.791H666.236V93.7891H669.713V95.791ZM671.607 99.7656H669.127V89.0039H671.607V99.7656ZM665.533 100.068C666.803 100.068 667.896 100.199 668.814 100.459C669.732 100.719 670.436 101.1 670.924 101.602C671.419 102.096 671.666 102.695 671.666 103.398C671.666 104.108 671.419 104.717 670.924 105.225C670.436 105.739 669.729 106.13 668.805 106.396C667.887 106.663 666.796 106.797 665.533 106.797C664.283 106.797 663.199 106.663 662.281 106.396C661.37 106.13 660.667 105.739 660.172 105.225C659.677 104.717 659.43 104.108 659.43 103.398C659.43 102.695 659.677 102.096 660.172 101.602C660.667 101.1 661.37 100.719 662.281 100.459C663.193 100.199 664.277 100.068 665.533 100.068ZM665.533 101.973C664.745 101.966 664.081 102.018 663.541 102.129C663.007 102.233 662.6 102.393 662.32 102.607C662.04 102.822 661.9 103.086 661.9 103.398C661.9 103.717 662.04 103.991 662.32 104.219C662.6 104.44 663.01 104.609 663.551 104.727C664.091 104.844 664.752 104.902 665.533 104.902C666.34 104.902 667.011 104.844 667.545 104.727C668.085 104.609 668.492 104.44 668.766 104.219C669.039 103.997 669.176 103.724 669.176 103.398C669.176 103.086 669.039 102.822 668.766 102.607C668.499 102.393 668.092 102.233 667.545 102.129C667.005 102.018 666.334 101.966 665.533 101.973Z" fill="#F5F8F8"/>
</g>
<g filter="url(#filter1_d_1686_4155)">
<rect x="769" y="10" width="241" height="131" rx="15" fill="#222829" shape-rendering="crispEdges"/>
<path d="M854.223 51.2471C854.194 50.8962 854.097 50.5954 853.933 50.3447C853.768 50.0941 853.528 49.9079 853.213 49.7861C852.905 49.6572 852.515 49.5928 852.042 49.5928C851.612 49.5928 851.251 49.6465 850.957 49.7539C850.671 49.8613 850.452 50.0117 850.302 50.2051C850.159 50.3913 850.087 50.6061 850.087 50.8496C850.073 51.2435 850.237 51.5586 850.581 51.7949C850.925 52.0312 851.473 52.2389 852.225 52.418L853.524 52.6758C855.179 53.0339 856.393 53.6104 857.166 54.4053C857.947 55.193 858.344 56.1992 858.358 57.4238C858.358 58.4336 858.104 59.293 857.596 60.002C857.094 60.7038 856.375 61.2445 855.437 61.624C854.506 61.9964 853.385 62.1826 852.074 62.1826C850.721 62.1826 849.546 61.9785 848.551 61.5703C847.555 61.1621 846.789 60.5462 846.252 59.7227C845.715 58.8919 845.436 57.8535 845.414 56.6074H849.324C849.353 57.0801 849.478 57.4847 849.7 57.8213C849.922 58.1507 850.23 58.4014 850.624 58.5732C851.018 58.738 851.483 58.8203 852.021 58.8203C852.479 58.8203 852.869 58.7594 853.191 58.6377C853.514 58.516 853.757 58.3512 853.922 58.1436C854.094 57.9359 854.18 57.696 854.18 57.4238C854.18 57.166 854.101 56.944 853.943 56.7578C853.786 56.5716 853.532 56.4069 853.181 56.2637C852.83 56.1133 852.368 55.9772 851.795 55.8555L850.227 55.501C848.801 55.2002 847.709 54.6953 846.95 53.9863C846.198 53.2702 845.822 52.3213 845.822 51.1396C845.822 50.1729 846.087 49.3206 846.617 48.583C847.147 47.8382 847.881 47.2617 848.819 46.8535C849.765 46.4382 850.842 46.2305 852.053 46.2305C853.285 46.2305 854.355 46.4382 855.265 46.8535C856.181 47.2617 856.89 47.8454 857.392 48.6045C857.893 49.3636 858.144 50.2445 858.144 51.2471H854.223ZM865.652 62.2148C864.413 62.2148 863.343 61.9642 862.44 61.4629C861.538 60.9616 860.847 60.2562 860.367 59.3467C859.887 58.4372 859.647 57.388 859.647 56.1992C859.647 54.9961 859.887 53.9434 860.367 53.041C860.847 52.1387 861.538 51.4368 862.44 50.9355C863.343 50.4342 864.413 50.1836 865.652 50.1836C866.884 50.1836 867.955 50.4342 868.864 50.9355C869.774 51.4368 870.468 52.1387 870.948 53.041C871.428 53.9434 871.668 54.9961 871.668 56.1992C871.668 57.388 871.428 58.4372 870.948 59.3467C870.468 60.2562 869.774 60.9616 868.864 61.4629C867.955 61.9642 866.884 62.2148 865.652 62.2148ZM865.695 59.207C866.075 59.207 866.401 59.0853 866.673 58.8418C866.945 58.5911 867.153 58.2367 867.296 57.7783C867.439 57.3128 867.511 56.7721 867.511 56.1562C867.511 55.5475 867.439 55.014 867.296 54.5557C867.153 54.0973 866.945 53.7464 866.673 53.5029C866.401 53.2594 866.075 53.1377 865.695 53.1377C865.294 53.1377 864.951 53.2594 864.664 53.5029C864.378 53.7464 864.159 54.0938 864.009 54.5449C863.866 54.9961 863.794 55.5332 863.794 56.1562C863.794 56.7865 863.866 57.3307 864.009 57.7891C864.159 58.2402 864.378 58.5911 864.664 58.8418C864.951 59.0853 865.294 59.207 865.695 59.207ZM877.469 62H873.408V46.4453H877.469V62ZM887.19 50.334H891.251V62H887.395V59.7979H887.266C887.008 60.5355 886.564 61.112 885.934 61.5273C885.303 61.9427 884.555 62.1504 883.688 62.1504C882.886 62.1504 882.177 61.9678 881.562 61.6025C880.953 61.2301 880.48 60.7109 880.144 60.0449C879.807 59.3789 879.639 58.6198 879.639 57.7676V50.334H883.699V56.9297C883.699 57.3236 883.764 57.6637 883.893 57.9502C884.029 58.2367 884.226 58.4587 884.483 58.6162C884.741 58.7666 885.046 58.8418 885.396 58.8418C885.762 58.8418 886.08 58.7666 886.353 58.6162C886.625 58.4587 886.832 58.2331 886.976 57.9395C887.119 57.6387 887.19 57.2949 887.19 56.9082V50.334ZM900.242 53.2773H892.669V50.334H900.242V53.2773ZM898.223 47.541V58.2617C898.223 58.4408 898.251 58.5876 898.309 58.7021C898.373 58.8167 898.466 58.9027 898.588 58.96C898.71 59.0101 898.867 59.0387 899.061 59.0459C899.326 59.0602 899.773 59.0423 900.403 58.9922V62.0215C899.852 62.1217 899.211 62.1719 898.48 62.1719C897.528 62.1719 896.729 62.0465 896.085 61.7959C895.448 61.5452 894.964 61.1621 894.635 60.6465C894.305 60.1237 894.148 59.4648 894.162 58.6699V47.541H898.223ZM902.004 50.334H906.064V62H902.004V50.334ZM904.023 49.0664C903.658 49.0664 903.322 48.984 903.014 48.8193C902.706 48.6475 902.455 48.4183 902.262 48.1318C902.076 47.8454 901.982 47.5339 901.982 47.1973C901.982 46.8607 902.076 46.5492 902.262 46.2627C902.455 45.9691 902.706 45.7399 903.014 45.5752C903.322 45.4105 903.658 45.3281 904.023 45.3281C904.389 45.3281 904.725 45.4105 905.033 45.5752C905.341 45.7399 905.585 45.9691 905.764 46.2627C905.95 46.5492 906.043 46.8607 906.043 47.1973C906.043 47.5339 905.95 47.8454 905.764 48.1318C905.585 48.4183 905.341 48.6475 905.033 48.8193C904.725 48.984 904.389 49.0664 904.023 49.0664ZM913.799 62.2148C912.56 62.2148 911.489 61.9642 910.587 61.4629C909.685 60.9616 908.993 60.2562 908.514 59.3467C908.034 58.4372 907.794 57.388 907.794 56.1992C907.794 54.9961 908.034 53.9434 908.514 53.041C908.993 52.1387 909.685 51.4368 910.587 50.9355C911.489 50.4342 912.56 50.1836 913.799 50.1836C915.031 50.1836 916.101 50.4342 917.011 50.9355C917.92 51.4368 918.615 52.1387 919.095 53.041C919.575 53.9434 919.814 54.9961 919.814 56.1992C919.814 57.388 919.575 58.4372 919.095 59.3467C918.615 60.2562 917.92 60.9616 917.011 61.4629C916.101 61.9642 915.031 62.2148 913.799 62.2148ZM913.842 59.207C914.221 59.207 914.547 59.0853 914.819 58.8418C915.091 58.5911 915.299 58.2367 915.442 57.7783C915.586 57.3128 915.657 56.7721 915.657 56.1562C915.657 55.5475 915.586 55.014 915.442 54.5557C915.299 54.0973 915.091 53.7464 914.819 53.5029C914.547 53.2594 914.221 53.1377 913.842 53.1377C913.441 53.1377 913.097 53.2594 912.811 53.5029C912.524 53.7464 912.306 54.0938 912.155 54.5449C912.012 54.9961 911.94 55.5332 911.94 56.1562C911.94 56.7865 912.012 57.3307 912.155 57.7891C912.306 58.2402 912.524 58.5911 912.811 58.8418C913.097 59.0853 913.441 59.207 913.842 59.207ZM925.615 62H921.555V50.334H925.411V52.5254H925.519C925.776 51.8021 926.22 51.2327 926.851 50.8174C927.488 50.3949 928.236 50.1836 929.096 50.1836C929.912 50.1836 930.625 50.3698 931.233 50.7422C931.849 51.1074 932.326 51.6195 932.662 52.2783C932.999 52.9372 933.167 53.6927 933.167 54.5449V62H929.106V55.3828C929.106 54.9889 929.038 54.6523 928.902 54.373C928.773 54.0866 928.58 53.8682 928.322 53.7178C928.064 53.5602 927.749 53.4814 927.377 53.4814C927.026 53.4814 926.715 53.5602 926.442 53.7178C926.177 53.8682 925.973 54.0866 925.83 54.373C925.687 54.6595 925.615 55.0033 925.615 55.4043V62Z" fill="#00C3CC"/>
<path d="M871.707 99.3848H855.467V97.4121H871.707V99.3848ZM864.803 98.1934H862.361V94.7363H864.803V98.1934ZM869.852 95.8887H857.43V93.9355H869.852V95.8887ZM869.754 91.748H859.9V95.2148H857.43V89.8047H869.754V91.748ZM863.543 100.264C864.832 100.264 865.939 100.391 866.863 100.645C867.794 100.898 868.504 101.273 868.992 101.768C869.487 102.262 869.734 102.858 869.734 103.555C869.734 104.245 869.487 104.834 868.992 105.322C868.504 105.811 867.794 106.182 866.863 106.436C865.939 106.689 864.832 106.82 863.543 106.826C862.254 106.82 861.141 106.689 860.203 106.436C859.272 106.182 858.556 105.811 858.055 105.322C857.56 104.834 857.312 104.245 857.312 103.555C857.312 102.858 857.56 102.262 858.055 101.768C858.556 101.273 859.272 100.898 860.203 100.645C861.134 100.391 862.247 100.264 863.543 100.264ZM863.543 102.168C862.723 102.168 862.039 102.22 861.492 102.324C860.945 102.422 860.535 102.575 860.262 102.783C859.988 102.992 859.852 103.249 859.852 103.555C859.852 103.867 859.988 104.124 860.262 104.326C860.535 104.528 860.942 104.678 861.482 104.775C862.029 104.873 862.716 104.922 863.543 104.922C864.363 104.922 865.044 104.873 865.584 104.775C866.131 104.678 866.541 104.528 866.814 104.326C867.088 104.118 867.225 103.861 867.225 103.555C867.225 103.249 867.088 102.992 866.814 102.783C866.541 102.575 866.128 102.422 865.574 102.324C865.027 102.22 864.35 102.168 863.543 102.168ZM879.334 103.594H876.902V99.375H879.334V103.594ZM885.027 103.584H882.586V99.3555H885.027V103.584ZM889.002 104.824H872.752V102.783H889.002V104.824ZM887.127 96.0645H877.107V99.1016H874.627V94.082H884.666V92.1777H874.598V90.1758H887.127V96.0645ZM887.547 100.059H874.627V98.0371H887.547V100.059ZM903.924 93.877H900.35V91.9141H903.924V93.877ZM903.924 97.2266H900.35V95.2344H903.924V97.2266ZM899.949 92.1875H890.477V90.1953H899.949V92.1875ZM890.018 97.1973C892.01 97.1908 893.846 97.1615 895.525 97.1094C897.212 97.0508 898.774 96.9401 900.213 96.7773L900.32 98.5938C898.836 98.8477 897.254 99.0169 895.574 99.1016C893.901 99.1797 892.14 99.2188 890.291 99.2188L890.018 97.1973ZM894.324 97.9102H891.912V91.8555H894.324V97.9102ZM898.484 97.9102H896.102V91.8555H898.484V97.9102ZM905.008 99.8828H902.527V89.0039H905.008V99.8828ZM898.934 100.166C900.203 100.166 901.297 100.296 902.215 100.557C903.139 100.817 903.846 101.198 904.334 101.699C904.822 102.194 905.066 102.793 905.066 103.496C905.066 104.173 904.819 104.762 904.324 105.264C903.836 105.765 903.133 106.146 902.215 106.406C901.297 106.667 900.203 106.797 898.934 106.797C897.671 106.797 896.58 106.667 895.662 106.406C894.751 106.146 894.051 105.765 893.562 105.264C893.074 104.762 892.83 104.173 892.83 103.496C892.83 102.793 893.074 102.194 893.562 101.699C894.057 101.198 894.76 100.817 895.672 100.557C896.583 100.296 897.671 100.166 898.934 100.166ZM898.934 102.061C898.139 102.061 897.472 102.113 896.932 102.217C896.398 102.314 895.991 102.471 895.711 102.686C895.438 102.9 895.301 103.171 895.301 103.496C895.301 103.802 895.438 104.059 895.711 104.268C895.991 104.476 896.398 104.635 896.932 104.746C897.472 104.85 898.139 104.902 898.934 104.902C899.734 104.902 900.405 104.85 900.945 104.746C901.492 104.635 901.899 104.476 902.166 104.268C902.439 104.059 902.576 103.802 902.576 103.496C902.576 103.164 902.439 102.894 902.166 102.686C901.893 102.471 901.486 102.314 900.945 102.217C900.411 102.113 899.741 102.061 898.934 102.061ZM921.336 106.768H918.836V89.0039H921.336V106.768ZM923.846 97.8906H920.691V95.8398H923.846V97.8906ZM916.59 90.8398C916.59 92.6953 916.326 94.4076 915.799 95.9766C915.271 97.5391 914.412 98.9779 913.221 100.293C912.029 101.602 910.467 102.734 908.533 103.691L907.127 101.787C908.722 100.98 910.034 100.068 911.062 99.0527C912.098 98.0371 912.869 96.8913 913.377 95.6152C913.891 94.3392 914.148 92.8971 914.148 91.2891V90.8398H916.59ZM915.398 92.8809H908.123V90.8398H915.398V92.8809Z" fill="#F5F8F8"/>
</g>
<g filter="url(#filter2_d_1686_4155)">
<rect x="263" y="10" width="241" height="131" rx="15" fill="#222829" shape-rendering="crispEdges"/>
<path d="M348.223 51.2471C348.194 50.8962 348.097 50.5954 347.933 50.3447C347.768 50.0941 347.528 49.9079 347.213 49.7861C346.905 49.6572 346.515 49.5928 346.042 49.5928C345.612 49.5928 345.251 49.6465 344.957 49.7539C344.671 49.8613 344.452 50.0117 344.302 50.2051C344.159 50.3913 344.087 50.6061 344.087 50.8496C344.073 51.2435 344.237 51.5586 344.581 51.7949C344.925 52.0312 345.473 52.2389 346.225 52.418L347.524 52.6758C349.179 53.0339 350.393 53.6104 351.166 54.4053C351.947 55.193 352.344 56.1992 352.358 57.4238C352.358 58.4336 352.104 59.293 351.596 60.002C351.094 60.7038 350.375 61.2445 349.437 61.624C348.506 61.9964 347.385 62.1826 346.074 62.1826C344.721 62.1826 343.546 61.9785 342.551 61.5703C341.555 61.1621 340.789 60.5462 340.252 59.7227C339.715 58.8919 339.436 57.8535 339.414 56.6074H343.324C343.353 57.0801 343.478 57.4847 343.7 57.8213C343.922 58.1507 344.23 58.4014 344.624 58.5732C345.018 58.738 345.483 58.8203 346.021 58.8203C346.479 58.8203 346.869 58.7594 347.191 58.6377C347.514 58.516 347.757 58.3512 347.922 58.1436C348.094 57.9359 348.18 57.696 348.18 57.4238C348.18 57.166 348.101 56.944 347.943 56.7578C347.786 56.5716 347.532 56.4069 347.181 56.2637C346.83 56.1133 346.368 55.9772 345.795 55.8555L344.227 55.501C342.801 55.2002 341.709 54.6953 340.95 53.9863C340.198 53.2702 339.822 52.3213 339.822 51.1396C339.822 50.1729 340.087 49.3206 340.617 48.583C341.147 47.8382 341.881 47.2617 342.819 46.8535C343.765 46.4382 344.842 46.2305 346.053 46.2305C347.285 46.2305 348.355 46.4382 349.265 46.8535C350.181 47.2617 350.89 47.8454 351.392 48.6045C351.893 49.3636 352.144 50.2445 352.144 51.2471H348.223ZM359.652 62.2148C358.413 62.2148 357.343 61.9642 356.44 61.4629C355.538 60.9616 354.847 60.2562 354.367 59.3467C353.887 58.4372 353.647 57.388 353.647 56.1992C353.647 54.9961 353.887 53.9434 354.367 53.041C354.847 52.1387 355.538 51.4368 356.44 50.9355C357.343 50.4342 358.413 50.1836 359.652 50.1836C360.884 50.1836 361.955 50.4342 362.864 50.9355C363.774 51.4368 364.468 52.1387 364.948 53.041C365.428 53.9434 365.668 54.9961 365.668 56.1992C365.668 57.388 365.428 58.4372 364.948 59.3467C364.468 60.2562 363.774 60.9616 362.864 61.4629C361.955 61.9642 360.884 62.2148 359.652 62.2148ZM359.695 59.207C360.075 59.207 360.401 59.0853 360.673 58.8418C360.945 58.5911 361.153 58.2367 361.296 57.7783C361.439 57.3128 361.511 56.7721 361.511 56.1562C361.511 55.5475 361.439 55.014 361.296 54.5557C361.153 54.0973 360.945 53.7464 360.673 53.5029C360.401 53.2594 360.075 53.1377 359.695 53.1377C359.294 53.1377 358.951 53.2594 358.664 53.5029C358.378 53.7464 358.159 54.0938 358.009 54.5449C357.866 54.9961 357.794 55.5332 357.794 56.1562C357.794 56.7865 357.866 57.3307 358.009 57.7891C358.159 58.2402 358.378 58.5911 358.664 58.8418C358.951 59.0853 359.294 59.207 359.695 59.207ZM371.469 62H367.408V46.4453H371.469V62ZM381.19 50.334H385.251V62H381.395V59.7979H381.266C381.008 60.5355 380.564 61.112 379.934 61.5273C379.303 61.9427 378.555 62.1504 377.688 62.1504C376.886 62.1504 376.177 61.9678 375.562 61.6025C374.953 61.2301 374.48 60.7109 374.144 60.0449C373.807 59.3789 373.639 58.6198 373.639 57.7676V50.334H377.699V56.9297C377.699 57.3236 377.764 57.6637 377.893 57.9502C378.029 58.2367 378.226 58.4587 378.483 58.6162C378.741 58.7666 379.046 58.8418 379.396 58.8418C379.762 58.8418 380.08 58.7666 380.353 58.6162C380.625 58.4587 380.832 58.2331 380.976 57.9395C381.119 57.6387 381.19 57.2949 381.19 56.9082V50.334ZM394.242 53.2773H386.669V50.334H394.242V53.2773ZM392.223 47.541V58.2617C392.223 58.4408 392.251 58.5876 392.309 58.7021C392.373 58.8167 392.466 58.9027 392.588 58.96C392.71 59.0101 392.867 59.0387 393.061 59.0459C393.326 59.0602 393.773 59.0423 394.403 58.9922V62.0215C393.852 62.1217 393.211 62.1719 392.48 62.1719C391.528 62.1719 390.729 62.0465 390.085 61.7959C389.448 61.5452 388.964 61.1621 388.635 60.6465C388.305 60.1237 388.148 59.4648 388.162 58.6699V47.541H392.223ZM396.004 50.334H400.064V62H396.004V50.334ZM398.023 49.0664C397.658 49.0664 397.322 48.984 397.014 48.8193C396.706 48.6475 396.455 48.4183 396.262 48.1318C396.076 47.8454 395.982 47.5339 395.982 47.1973C395.982 46.8607 396.076 46.5492 396.262 46.2627C396.455 45.9691 396.706 45.7399 397.014 45.5752C397.322 45.4105 397.658 45.3281 398.023 45.3281C398.389 45.3281 398.725 45.4105 399.033 45.5752C399.341 45.7399 399.585 45.9691 399.764 46.2627C399.95 46.5492 400.043 46.8607 400.043 47.1973C400.043 47.5339 399.95 47.8454 399.764 48.1318C399.585 48.4183 399.341 48.6475 399.033 48.8193C398.725 48.984 398.389 49.0664 398.023 49.0664ZM407.799 62.2148C406.56 62.2148 405.489 61.9642 404.587 61.4629C403.685 60.9616 402.993 60.2562 402.514 59.3467C402.034 58.4372 401.794 57.388 401.794 56.1992C401.794 54.9961 402.034 53.9434 402.514 53.041C402.993 52.1387 403.685 51.4368 404.587 50.9355C405.489 50.4342 406.56 50.1836 407.799 50.1836C409.031 50.1836 410.101 50.4342 411.011 50.9355C411.92 51.4368 412.615 52.1387 413.095 53.041C413.575 53.9434 413.814 54.9961 413.814 56.1992C413.814 57.388 413.575 58.4372 413.095 59.3467C412.615 60.2562 411.92 60.9616 411.011 61.4629C410.101 61.9642 409.031 62.2148 407.799 62.2148ZM407.842 59.207C408.221 59.207 408.547 59.0853 408.819 58.8418C409.091 58.5911 409.299 58.2367 409.442 57.7783C409.586 57.3128 409.657 56.7721 409.657 56.1562C409.657 55.5475 409.586 55.014 409.442 54.5557C409.299 54.0973 409.091 53.7464 408.819 53.5029C408.547 53.2594 408.221 53.1377 407.842 53.1377C407.441 53.1377 407.097 53.2594 406.811 53.5029C406.524 53.7464 406.306 54.0938 406.155 54.5449C406.012 54.9961 405.94 55.5332 405.94 56.1562C405.94 56.7865 406.012 57.3307 406.155 57.7891C406.306 58.2402 406.524 58.5911 406.811 58.8418C407.097 59.0853 407.441 59.207 407.842 59.207ZM419.615 62H415.555V50.334H419.411V52.5254H419.519C419.776 51.8021 420.22 51.2327 420.851 50.8174C421.488 50.3949 422.236 50.1836 423.096 50.1836C423.912 50.1836 424.625 50.3698 425.233 50.7422C425.849 51.1074 426.326 51.6195 426.662 52.2783C426.999 52.9372 427.167 53.6927 427.167 54.5449V62H423.106V55.3828C423.106 54.9889 423.038 54.6523 422.902 54.373C422.773 54.0866 422.58 53.8682 422.322 53.7178C422.064 53.5602 421.749 53.4814 421.377 53.4814C421.026 53.4814 420.715 53.5602 420.442 53.7178C420.177 53.8682 419.973 54.0866 419.83 54.373C419.687 54.6595 419.615 55.0033 419.615 55.4043V62Z" fill="#00C3CC"/>
<path d="M326.518 104.727H310.268V102.676H326.518V104.727ZM325.16 92.5781H311.527V90.5762H325.16V92.5781ZM325.082 99.9316H311.615V97.959H325.082V99.9316ZM316.479 98.1543H313.988V92.3828H316.479V98.1543ZM322.66 98.1543H320.209V92.3828H322.66V98.1543ZM343.803 104.824H327.553V102.783H343.803V104.824ZM336.869 103.633H334.418V99.4141H336.869V103.633ZM341.928 96.0645H331.908V99.1016H329.428V94.1113H339.467V92.1777H329.398V90.1758H341.928V96.0645ZM342.348 100.088H329.428V98.0664H342.348V100.088ZM359.75 98.1445H357.24V89.0039H359.75V98.1445ZM359.75 103.594H350.17V105.791H347.699V101.816H357.279V100.781H347.66V98.8477H359.75V103.594ZM360.248 106.67H347.699V104.717H360.248V106.67ZM355.258 92.0117H345.6V90.1074H355.258V92.0117ZM345.121 95.8398C347.178 95.8333 349.109 95.7943 350.912 95.7227C352.722 95.651 354.402 95.5241 355.951 95.3418L356.059 97.1289C354.464 97.3828 352.761 97.5586 350.951 97.6562C349.141 97.7474 347.289 97.793 345.395 97.793L345.121 95.8398ZM349.418 96.8164H347.025V90.9766H349.418V96.8164ZM353.783 96.8164H351.4V90.9766H353.783V96.8164ZM382.104 106.797H379.76V89.0039H382.104V106.797ZM376.791 97.1289H373.793V95.127H376.791V97.1289ZM378.471 105.986H376.137V89.3164H378.471V105.986ZM371.85 93.7793C371.85 95.1725 371.706 96.4941 371.42 97.7441C371.14 98.9876 370.707 100.111 370.121 101.113C369.535 102.109 368.786 102.887 367.875 103.447L366.371 101.611C367.211 101.09 367.898 100.417 368.432 99.5898C368.972 98.7565 369.363 97.8483 369.604 96.8652C369.844 95.8822 369.965 94.8535 369.965 93.7793V91.9141H371.85V93.7793ZM372.367 93.7793C372.367 94.8275 372.481 95.8236 372.709 96.7676C372.943 97.7051 373.324 98.5612 373.852 99.3359C374.379 100.104 375.056 100.729 375.883 101.211L374.428 103.037C373.523 102.503 372.781 101.764 372.201 100.82C371.622 99.8763 371.199 98.8086 370.932 97.6172C370.665 96.4258 370.531 95.1465 370.531 93.7793V91.9141H372.367V93.7793ZM375.062 92.8223H367.045V90.8301H375.062V92.8223ZM392.035 100.098C393.337 100.098 394.46 100.228 395.404 100.488C396.355 100.749 397.087 101.133 397.602 101.641C398.122 102.142 398.383 102.747 398.383 103.457C398.383 104.147 398.122 104.743 397.602 105.244C397.087 105.745 396.352 106.13 395.395 106.396C394.444 106.663 393.324 106.797 392.035 106.797C390.759 106.797 389.646 106.663 388.695 106.396C387.745 106.13 387.009 105.745 386.488 105.244C385.967 104.743 385.707 104.147 385.707 103.457C385.707 102.754 385.964 102.148 386.479 101.641C386.993 101.133 387.725 100.749 388.676 100.488C389.633 100.228 390.753 100.098 392.035 100.098ZM392.035 101.943C391.215 101.943 390.518 102.002 389.945 102.119C389.379 102.23 388.943 102.399 388.637 102.627C388.337 102.848 388.188 103.125 388.188 103.457C388.188 103.776 388.337 104.043 388.637 104.258C388.943 104.473 389.379 104.635 389.945 104.746C390.518 104.85 391.215 104.902 392.035 104.902C392.862 104.902 393.562 104.85 394.135 104.746C394.708 104.635 395.144 104.469 395.443 104.248C395.749 104.027 395.902 103.763 395.902 103.457C395.902 103.125 395.749 102.848 395.443 102.627C395.144 102.399 394.708 102.23 394.135 102.119C393.562 102.002 392.862 101.943 392.035 101.943ZM397.23 91.7773H385.883V89.8145H397.23V91.7773ZM400.209 98.9746H384.066V96.9629H400.209V98.9746ZM392.582 97.5H390.111V93.8477H392.582V97.5ZM398.295 91.2695C398.295 92.2331 398.266 93.0664 398.207 93.7695C398.155 94.4661 398.015 95.2214 397.787 96.0352L395.336 95.791C395.544 94.9707 395.671 94.2448 395.717 93.6133C395.769 92.9818 395.798 92.2005 395.805 91.2695V89.8145H398.295V91.2695ZM420.697 91.377H407.367V89.5117H420.697V91.377ZM420.59 95.5762H407.494V93.7012H420.59V95.5762ZM412.162 94.9219H409.672V90.2344H412.162V94.9219ZM418.393 94.9219H415.893V90.2344H418.393V94.9219ZM422.162 98.457H405.951V96.5039H422.162V98.457ZM420.18 103.867H410.277V105.547H407.826V102.168H417.719V101.26H407.816V99.4727H420.18V103.867ZM420.648 106.67H407.826V104.844H420.648V106.67ZM438.5 100.986H436.127V89.043H438.5V100.986ZM436.83 95.3418H433.949V93.3496H436.83V95.3418ZM434.584 99.502H432.279V89.3457H434.584V99.502ZM425.18 97.4121C426.54 97.4121 427.68 97.3796 428.598 97.3145C429.522 97.2493 430.463 97.1289 431.42 96.9531L431.645 98.9062C430.694 99.1016 429.757 99.2285 428.832 99.2871C427.914 99.3392 426.697 99.3652 425.18 99.3652H423.949V97.4121H425.18ZM430.717 95.6738H426.361V98.75H423.949V93.8672H428.305V92.2461H423.92V90.2539H430.717V95.6738ZM433.227 100.518C433.227 101.553 432.95 102.503 432.396 103.369C431.843 104.229 431.049 104.948 430.014 105.527C428.985 106.113 427.761 106.51 426.342 106.719L425.355 104.795C426.586 104.639 427.631 104.342 428.49 103.906C429.35 103.464 429.994 102.949 430.424 102.363C430.86 101.771 431.078 101.156 431.078 100.518V100.186H433.227V100.518ZM433.578 100.518C433.578 101.156 433.793 101.771 434.223 102.363C434.652 102.949 435.3 103.464 436.166 103.906C437.038 104.342 438.09 104.639 439.32 104.795L438.324 106.719C436.905 106.51 435.678 106.113 434.643 105.527C433.607 104.948 432.82 104.229 432.279 103.369C431.739 102.51 431.469 101.559 431.469 100.518V100.186H433.578V100.518ZM456.732 99.5996H440.521V97.6465H456.732V99.5996ZM449.838 98.5352H447.338V95.7812H449.838V98.5352ZM455.268 91.5039H441.938V89.5117H455.268V91.5039ZM455.16 96.2109H442.064V94.209H455.16V96.2109ZM446.732 95.5664H444.242V90.2637H446.732V95.5664ZM452.963 95.5664H450.463V90.2637H452.963V95.5664ZM454.789 106.602H442.396V100.83H454.789V106.602ZM444.848 104.6H452.348V102.773H444.848V104.6Z" fill="#F5F8F8"/>
</g>
<g filter="url(#filter3_d_1686_4155)">
<rect x="1022" y="10" width="241" height="131" rx="15" fill="#222829" shape-rendering="crispEdges"/>
<path d="M1107.22 51.2471C1107.19 50.8962 1107.1 50.5954 1106.93 50.3447C1106.77 50.0941 1106.53 49.9079 1106.21 49.7861C1105.9 49.6572 1105.51 49.5928 1105.04 49.5928C1104.61 49.5928 1104.25 49.6465 1103.96 49.7539C1103.67 49.8613 1103.45 50.0117 1103.3 50.2051C1103.16 50.3913 1103.09 50.6061 1103.09 50.8496C1103.07 51.2435 1103.24 51.5586 1103.58 51.7949C1103.92 52.0312 1104.47 52.2389 1105.22 52.418L1106.52 52.6758C1108.18 53.0339 1109.39 53.6104 1110.17 54.4053C1110.95 55.193 1111.34 56.1992 1111.36 57.4238C1111.36 58.4336 1111.1 59.293 1110.6 60.002C1110.09 60.7038 1109.37 61.2445 1108.44 61.624C1107.51 61.9964 1106.38 62.1826 1105.07 62.1826C1103.72 62.1826 1102.55 61.9785 1101.55 61.5703C1100.56 61.1621 1099.79 60.5462 1099.25 59.7227C1098.71 58.8919 1098.44 57.8535 1098.41 56.6074H1102.32C1102.35 57.0801 1102.48 57.4847 1102.7 57.8213C1102.92 58.1507 1103.23 58.4014 1103.62 58.5732C1104.02 58.738 1104.48 58.8203 1105.02 58.8203C1105.48 58.8203 1105.87 58.7594 1106.19 58.6377C1106.51 58.516 1106.76 58.3512 1106.92 58.1436C1107.09 57.9359 1107.18 57.696 1107.18 57.4238C1107.18 57.166 1107.1 56.944 1106.94 56.7578C1106.79 56.5716 1106.53 56.4069 1106.18 56.2637C1105.83 56.1133 1105.37 55.9772 1104.79 55.8555L1103.23 55.501C1101.8 55.2002 1100.71 54.6953 1099.95 53.9863C1099.2 53.2702 1098.82 52.3213 1098.82 51.1396C1098.82 50.1729 1099.09 49.3206 1099.62 48.583C1100.15 47.8382 1100.88 47.2617 1101.82 46.8535C1102.76 46.4382 1103.84 46.2305 1105.05 46.2305C1106.28 46.2305 1107.36 46.4382 1108.26 46.8535C1109.18 47.2617 1109.89 47.8454 1110.39 48.6045C1110.89 49.3636 1111.14 50.2445 1111.14 51.2471H1107.22ZM1118.65 62.2148C1117.41 62.2148 1116.34 61.9642 1115.44 61.4629C1114.54 60.9616 1113.85 60.2562 1113.37 59.3467C1112.89 58.4372 1112.65 57.388 1112.65 56.1992C1112.65 54.9961 1112.89 53.9434 1113.37 53.041C1113.85 52.1387 1114.54 51.4368 1115.44 50.9355C1116.34 50.4342 1117.41 50.1836 1118.65 50.1836C1119.88 50.1836 1120.95 50.4342 1121.86 50.9355C1122.77 51.4368 1123.47 52.1387 1123.95 53.041C1124.43 53.9434 1124.67 54.9961 1124.67 56.1992C1124.67 57.388 1124.43 58.4372 1123.95 59.3467C1123.47 60.2562 1122.77 60.9616 1121.86 61.4629C1120.95 61.9642 1119.88 62.2148 1118.65 62.2148ZM1118.7 59.207C1119.07 59.207 1119.4 59.0853 1119.67 58.8418C1119.94 58.5911 1120.15 58.2367 1120.3 57.7783C1120.44 57.3128 1120.51 56.7721 1120.51 56.1562C1120.51 55.5475 1120.44 55.014 1120.3 54.5557C1120.15 54.0973 1119.94 53.7464 1119.67 53.5029C1119.4 53.2594 1119.07 53.1377 1118.7 53.1377C1118.29 53.1377 1117.95 53.2594 1117.66 53.5029C1117.38 53.7464 1117.16 54.0938 1117.01 54.5449C1116.87 54.9961 1116.79 55.5332 1116.79 56.1562C1116.79 56.7865 1116.87 57.3307 1117.01 57.7891C1117.16 58.2402 1117.38 58.5911 1117.66 58.8418C1117.95 59.0853 1118.29 59.207 1118.7 59.207ZM1130.47 62H1126.41V46.4453H1130.47V62ZM1140.19 50.334H1144.25V62H1140.39V59.7979H1140.27C1140.01 60.5355 1139.56 61.112 1138.93 61.5273C1138.3 61.9427 1137.56 62.1504 1136.69 62.1504C1135.89 62.1504 1135.18 61.9678 1134.56 61.6025C1133.95 61.2301 1133.48 60.7109 1133.14 60.0449C1132.81 59.3789 1132.64 58.6198 1132.64 57.7676V50.334H1136.7V56.9297C1136.7 57.3236 1136.76 57.6637 1136.89 57.9502C1137.03 58.2367 1137.23 58.4587 1137.48 58.6162C1137.74 58.7666 1138.05 58.8418 1138.4 58.8418C1138.76 58.8418 1139.08 58.7666 1139.35 58.6162C1139.62 58.4587 1139.83 58.2331 1139.98 57.9395C1140.12 57.6387 1140.19 57.2949 1140.19 56.9082V50.334ZM1153.24 53.2773H1145.67V50.334H1153.24V53.2773ZM1151.22 47.541V58.2617C1151.22 58.4408 1151.25 58.5876 1151.31 58.7021C1151.37 58.8167 1151.47 58.9027 1151.59 58.96C1151.71 59.0101 1151.87 59.0387 1152.06 59.0459C1152.33 59.0602 1152.77 59.0423 1153.4 58.9922V62.0215C1152.85 62.1217 1152.21 62.1719 1151.48 62.1719C1150.53 62.1719 1149.73 62.0465 1149.08 61.7959C1148.45 61.5452 1147.96 61.1621 1147.63 60.6465C1147.31 60.1237 1147.15 59.4648 1147.16 58.6699V47.541H1151.22ZM1155 50.334H1159.06V62H1155V50.334ZM1157.02 49.0664C1156.66 49.0664 1156.32 48.984 1156.01 48.8193C1155.71 48.6475 1155.46 48.4183 1155.26 48.1318C1155.08 47.8454 1154.98 47.5339 1154.98 47.1973C1154.98 46.8607 1155.08 46.5492 1155.26 46.2627C1155.46 45.9691 1155.71 45.7399 1156.01 45.5752C1156.32 45.4105 1156.66 45.3281 1157.02 45.3281C1157.39 45.3281 1157.73 45.4105 1158.03 45.5752C1158.34 45.7399 1158.58 45.9691 1158.76 46.2627C1158.95 46.5492 1159.04 46.8607 1159.04 47.1973C1159.04 47.5339 1158.95 47.8454 1158.76 48.1318C1158.58 48.4183 1158.34 48.6475 1158.03 48.8193C1157.73 48.984 1157.39 49.0664 1157.02 49.0664ZM1166.8 62.2148C1165.56 62.2148 1164.49 61.9642 1163.59 61.4629C1162.68 60.9616 1161.99 60.2562 1161.51 59.3467C1161.03 58.4372 1160.79 57.388 1160.79 56.1992C1160.79 54.9961 1161.03 53.9434 1161.51 53.041C1161.99 52.1387 1162.68 51.4368 1163.59 50.9355C1164.49 50.4342 1165.56 50.1836 1166.8 50.1836C1168.03 50.1836 1169.1 50.4342 1170.01 50.9355C1170.92 51.4368 1171.61 52.1387 1172.09 53.041C1172.57 53.9434 1172.81 54.9961 1172.81 56.1992C1172.81 57.388 1172.57 58.4372 1172.09 59.3467C1171.61 60.2562 1170.92 60.9616 1170.01 61.4629C1169.1 61.9642 1168.03 62.2148 1166.8 62.2148ZM1166.84 59.207C1167.22 59.207 1167.55 59.0853 1167.82 58.8418C1168.09 58.5911 1168.3 58.2367 1168.44 57.7783C1168.59 57.3128 1168.66 56.7721 1168.66 56.1562C1168.66 55.5475 1168.59 55.014 1168.44 54.5557C1168.3 54.0973 1168.09 53.7464 1167.82 53.5029C1167.55 53.2594 1167.22 53.1377 1166.84 53.1377C1166.44 53.1377 1166.1 53.2594 1165.81 53.5029C1165.52 53.7464 1165.31 54.0938 1165.16 54.5449C1165.01 54.9961 1164.94 55.5332 1164.94 56.1562C1164.94 56.7865 1165.01 57.3307 1165.16 57.7891C1165.31 58.2402 1165.52 58.5911 1165.81 58.8418C1166.1 59.0853 1166.44 59.207 1166.84 59.207ZM1178.62 62H1174.55V50.334H1178.41V52.5254H1178.52C1178.78 51.8021 1179.22 51.2327 1179.85 50.8174C1180.49 50.3949 1181.24 50.1836 1182.1 50.1836C1182.91 50.1836 1183.62 50.3698 1184.23 50.7422C1184.85 51.1074 1185.33 51.6195 1185.66 52.2783C1186 52.9372 1186.17 53.6927 1186.17 54.5449V62H1182.11V55.3828C1182.11 54.9889 1182.04 54.6523 1181.9 54.373C1181.77 54.0866 1181.58 53.8682 1181.32 53.7178C1181.06 53.5602 1180.75 53.4814 1180.38 53.4814C1180.03 53.4814 1179.71 53.5602 1179.44 53.7178C1179.18 53.8682 1178.97 54.0866 1178.83 54.373C1178.69 54.6595 1178.62 55.0033 1178.62 55.4043V62Z" fill="#00C3CC"/>
<path d="M1103.51 91.5723C1103.51 92.7767 1103.32 93.8965 1102.96 94.9316C1102.6 95.9668 1102.05 96.8685 1101.32 97.6367C1100.58 98.3984 1099.67 98.9681 1098.58 99.3457L1097.25 97.3926C1098.2 97.0671 1098.99 96.6081 1099.62 96.0156C1100.25 95.4167 1100.72 94.7363 1101.02 93.9746C1101.32 93.2129 1101.47 92.4121 1101.47 91.5723V89.9609H1103.51V91.5723ZM1103.97 91.8164C1103.97 92.5586 1104.12 93.265 1104.41 93.9355C1104.71 94.5996 1105.17 95.1921 1105.77 95.7129C1106.38 96.2272 1107.14 96.6276 1108.05 96.9141L1106.72 98.8477C1105.68 98.4961 1104.81 97.9753 1104.09 97.2852C1103.38 96.5951 1102.84 95.7845 1102.49 94.8535C1102.14 93.916 1101.96 92.9036 1101.96 91.8164V89.9609H1103.97V91.8164ZM1111.6 99.5605H1109.11V89.0039H1111.6V99.5605ZM1114 95.2539H1110.9V93.1738H1114V95.2539ZM1105.77 99.9219C1107 99.9219 1108.06 100.059 1108.96 100.332C1109.86 100.599 1110.55 100.99 1111.04 101.504C1111.52 102.018 1111.77 102.633 1111.77 103.35C1111.77 104.072 1111.52 104.691 1111.04 105.205C1110.55 105.726 1109.86 106.12 1108.96 106.387C1108.07 106.66 1107 106.797 1105.77 106.797C1104.53 106.797 1103.46 106.66 1102.54 106.387C1101.62 106.12 1100.91 105.726 1100.42 105.205C1099.93 104.691 1099.68 104.072 1099.68 103.35C1099.68 102.633 1099.93 102.018 1100.42 101.504C1100.91 100.99 1101.62 100.599 1102.54 100.332C1103.46 100.059 1104.53 99.9219 1105.77 99.9219ZM1105.77 101.875C1105 101.875 1104.35 101.93 1103.81 102.041C1103.27 102.145 1102.87 102.311 1102.6 102.539C1102.32 102.76 1102.19 103.031 1102.19 103.35C1102.19 103.682 1102.32 103.958 1102.6 104.18C1102.87 104.401 1103.27 104.567 1103.8 104.678C1104.33 104.782 1104.99 104.837 1105.77 104.844C1106.56 104.837 1107.21 104.782 1107.73 104.678C1108.26 104.567 1108.65 104.401 1108.92 104.18C1109.18 103.958 1109.32 103.682 1109.32 103.35C1109.32 103.024 1109.18 102.751 1108.91 102.529C1108.64 102.308 1108.24 102.145 1107.71 102.041C1107.19 101.93 1106.54 101.875 1105.77 101.875ZM1124.87 97.0605H1121.85V95.0195H1124.87V97.0605ZM1119.98 93.6133C1119.98 95 1119.84 96.3184 1119.55 97.5684C1119.27 98.8184 1118.83 99.9349 1118.23 100.918C1117.64 101.901 1116.89 102.673 1115.98 103.232L1114.45 101.377C1115.29 100.856 1115.98 100.186 1116.52 99.3652C1117.06 98.5384 1117.45 97.64 1117.7 96.6699C1117.94 95.6999 1118.07 94.681 1118.07 93.6133V90.5469H1119.98V93.6133ZM1120.48 93.4961C1120.48 94.5443 1120.58 95.5273 1120.79 96.4453C1121 97.3568 1121.34 98.2031 1121.83 98.9844C1122.31 99.7656 1122.94 100.407 1123.71 100.908L1122.36 102.822C1121.46 102.275 1120.73 101.52 1120.18 100.557C1119.62 99.5931 1119.22 98.5221 1118.97 97.3438C1118.73 96.1654 1118.61 94.8828 1118.61 93.4961V90.5469H1120.48V93.4961ZM1130.2 106.797H1127.8V89.0039H1130.2V106.797ZM1126.47 105.977H1124.14V89.2773H1126.47V105.977ZM1152.96 104.727H1136.71V102.676H1152.96V104.727ZM1151.6 92.5781H1137.97V90.5762H1151.6V92.5781ZM1151.52 99.9316H1138.06V97.959H1151.52V99.9316ZM1142.92 98.1543H1140.43V92.3828H1142.92V98.1543ZM1149.1 98.1543H1146.65V92.3828H1149.1V98.1543ZM1170.24 104.824H1153.99V102.783H1170.24V104.824ZM1163.31 103.633H1160.86V99.4141H1163.31V103.633ZM1168.37 96.0645H1158.35V99.1016H1155.87V94.1113H1165.91V92.1777H1155.84V90.1758H1168.37V96.0645ZM1168.79 100.088H1155.87V98.0664H1168.79V100.088ZM1186.19 98.1445H1183.68V89.0039H1186.19V98.1445ZM1186.19 103.594H1176.61V105.791H1174.14V101.816H1183.72V100.781H1174.1V98.8477H1186.19V103.594ZM1186.69 106.67H1174.14V104.717H1186.69V106.67ZM1181.7 92.0117H1172.04V90.1074H1181.7V92.0117ZM1171.56 95.8398C1173.62 95.8333 1175.55 95.7943 1177.35 95.7227C1179.16 95.651 1180.84 95.5241 1182.39 95.3418L1182.5 97.1289C1180.9 97.3828 1179.2 97.5586 1177.39 97.6562C1175.58 97.7474 1173.73 97.793 1171.84 97.793L1171.56 95.8398ZM1175.86 96.8164H1173.47V90.9766H1175.86V96.8164ZM1180.22 96.8164H1177.84V90.9766H1180.22V96.8164Z" fill="#F5F8F8"/>
</g>
<g filter="url(#filter4_d_1686_4155)">
<rect x="10" y="10" width="241" height="131" rx="15" fill="#222829" shape-rendering="crispEdges"/>
<path d="M95.2227 51.2471C95.194 50.8962 95.0973 50.5954 94.9326 50.3447C94.7679 50.0941 94.528 49.9079 94.2129 49.7861C93.9049 49.6572 93.5146 49.5928 93.042 49.5928C92.6123 49.5928 92.2507 49.6465 91.957 49.7539C91.6706 49.8613 91.4521 50.0117 91.3018 50.2051C91.1585 50.3913 91.0869 50.6061 91.0869 50.8496C91.0726 51.2435 91.2373 51.5586 91.5811 51.7949C91.9248 52.0312 92.4727 52.2389 93.2246 52.418L94.5244 52.6758C96.1787 53.0339 97.3926 53.6104 98.166 54.4053C98.9466 55.193 99.3441 56.1992 99.3584 57.4238C99.3584 58.4336 99.1042 59.293 98.5957 60.002C98.0944 60.7038 97.3747 61.2445 96.4365 61.624C95.5055 61.9964 94.3848 62.1826 93.0742 62.1826C91.7207 62.1826 90.5462 61.9785 89.5508 61.5703C88.5553 61.1621 87.7891 60.5462 87.252 59.7227C86.7148 58.8919 86.4355 57.8535 86.4141 56.6074H90.3242C90.3529 57.0801 90.4782 57.4847 90.7002 57.8213C90.9222 58.1507 91.2301 58.4014 91.624 58.5732C92.0179 58.738 92.4834 58.8203 93.0205 58.8203C93.4788 58.8203 93.8691 58.7594 94.1914 58.6377C94.5137 58.516 94.7572 58.3512 94.9219 58.1436C95.0938 57.9359 95.1797 57.696 95.1797 57.4238C95.1797 57.166 95.1009 56.944 94.9434 56.7578C94.7858 56.5716 94.5316 56.4069 94.1807 56.2637C93.8298 56.1133 93.3678 55.9772 92.7949 55.8555L91.2266 55.501C89.8014 55.2002 88.7093 54.6953 87.9502 53.9863C87.1982 53.2702 86.8223 52.3213 86.8223 51.1396C86.8223 50.1729 87.0872 49.3206 87.6172 48.583C88.1471 47.8382 88.8812 47.2617 89.8193 46.8535C90.7646 46.4382 91.8424 46.2305 93.0527 46.2305C94.2845 46.2305 95.3551 46.4382 96.2646 46.8535C97.1813 47.2617 97.8903 47.8454 98.3916 48.6045C98.8929 49.3636 99.1436 50.2445 99.1436 51.2471H95.2227ZM106.652 62.2148C105.413 62.2148 104.343 61.9642 103.44 61.4629C102.538 60.9616 101.847 60.2562 101.367 59.3467C100.887 58.4372 100.647 57.388 100.647 56.1992C100.647 54.9961 100.887 53.9434 101.367 53.041C101.847 52.1387 102.538 51.4368 103.44 50.9355C104.343 50.4342 105.413 50.1836 106.652 50.1836C107.884 50.1836 108.955 50.4342 109.864 50.9355C110.774 51.4368 111.468 52.1387 111.948 53.041C112.428 53.9434 112.668 54.9961 112.668 56.1992C112.668 57.388 112.428 58.4372 111.948 59.3467C111.468 60.2562 110.774 60.9616 109.864 61.4629C108.955 61.9642 107.884 62.2148 106.652 62.2148ZM106.695 59.207C107.075 59.207 107.401 59.0853 107.673 58.8418C107.945 58.5911 108.153 58.2367 108.296 57.7783C108.439 57.3128 108.511 56.7721 108.511 56.1562C108.511 55.5475 108.439 55.014 108.296 54.5557C108.153 54.0973 107.945 53.7464 107.673 53.5029C107.401 53.2594 107.075 53.1377 106.695 53.1377C106.294 53.1377 105.951 53.2594 105.664 53.5029C105.378 53.7464 105.159 54.0938 105.009 54.5449C104.866 54.9961 104.794 55.5332 104.794 56.1562C104.794 56.7865 104.866 57.3307 105.009 57.7891C105.159 58.2402 105.378 58.5911 105.664 58.8418C105.951 59.0853 106.294 59.207 106.695 59.207ZM118.469 62H114.408V46.4453H118.469V62ZM128.19 50.334H132.251V62H128.395V59.7979H128.266C128.008 60.5355 127.564 61.112 126.934 61.5273C126.303 61.9427 125.555 62.1504 124.688 62.1504C123.886 62.1504 123.177 61.9678 122.562 61.6025C121.953 61.2301 121.48 60.7109 121.144 60.0449C120.807 59.3789 120.639 58.6198 120.639 57.7676V50.334H124.699V56.9297C124.699 57.3236 124.764 57.6637 124.893 57.9502C125.029 58.2367 125.226 58.4587 125.483 58.6162C125.741 58.7666 126.046 58.8418 126.396 58.8418C126.762 58.8418 127.08 58.7666 127.353 58.6162C127.625 58.4587 127.832 58.2331 127.976 57.9395C128.119 57.6387 128.19 57.2949 128.19 56.9082V50.334ZM141.242 53.2773H133.669V50.334H141.242V53.2773ZM139.223 47.541V58.2617C139.223 58.4408 139.251 58.5876 139.309 58.7021C139.373 58.8167 139.466 58.9027 139.588 58.96C139.71 59.0101 139.867 59.0387 140.061 59.0459C140.326 59.0602 140.773 59.0423 141.403 58.9922V62.0215C140.852 62.1217 140.211 62.1719 139.48 62.1719C138.528 62.1719 137.729 62.0465 137.085 61.7959C136.448 61.5452 135.964 61.1621 135.635 60.6465C135.305 60.1237 135.148 59.4648 135.162 58.6699V47.541H139.223ZM143.004 50.334H147.064V62H143.004V50.334ZM145.023 49.0664C144.658 49.0664 144.322 48.984 144.014 48.8193C143.706 48.6475 143.455 48.4183 143.262 48.1318C143.076 47.8454 142.982 47.5339 142.982 47.1973C142.982 46.8607 143.076 46.5492 143.262 46.2627C143.455 45.9691 143.706 45.7399 144.014 45.5752C144.322 45.4105 144.658 45.3281 145.023 45.3281C145.389 45.3281 145.725 45.4105 146.033 45.5752C146.341 45.7399 146.585 45.9691 146.764 46.2627C146.95 46.5492 147.043 46.8607 147.043 47.1973C147.043 47.5339 146.95 47.8454 146.764 48.1318C146.585 48.4183 146.341 48.6475 146.033 48.8193C145.725 48.984 145.389 49.0664 145.023 49.0664ZM154.799 62.2148C153.56 62.2148 152.489 61.9642 151.587 61.4629C150.685 60.9616 149.993 60.2562 149.514 59.3467C149.034 58.4372 148.794 57.388 148.794 56.1992C148.794 54.9961 149.034 53.9434 149.514 53.041C149.993 52.1387 150.685 51.4368 151.587 50.9355C152.489 50.4342 153.56 50.1836 154.799 50.1836C156.031 50.1836 157.101 50.4342 158.011 50.9355C158.92 51.4368 159.615 52.1387 160.095 53.041C160.575 53.9434 160.814 54.9961 160.814 56.1992C160.814 57.388 160.575 58.4372 160.095 59.3467C159.615 60.2562 158.92 60.9616 158.011 61.4629C157.101 61.9642 156.031 62.2148 154.799 62.2148ZM154.842 59.207C155.221 59.207 155.547 59.0853 155.819 58.8418C156.091 58.5911 156.299 58.2367 156.442 57.7783C156.586 57.3128 156.657 56.7721 156.657 56.1562C156.657 55.5475 156.586 55.014 156.442 54.5557C156.299 54.0973 156.091 53.7464 155.819 53.5029C155.547 53.2594 155.221 53.1377 154.842 53.1377C154.441 53.1377 154.097 53.2594 153.811 53.5029C153.524 53.7464 153.306 54.0938 153.155 54.5449C153.012 54.9961 152.94 55.5332 152.94 56.1562C152.94 56.7865 153.012 57.3307 153.155 57.7891C153.306 58.2402 153.524 58.5911 153.811 58.8418C154.097 59.0853 154.441 59.207 154.842 59.207ZM166.615 62H162.555V50.334H166.411V52.5254H166.519C166.776 51.8021 167.22 51.2327 167.851 50.8174C168.488 50.3949 169.236 50.1836 170.096 50.1836C170.912 50.1836 171.625 50.3698 172.233 50.7422C172.849 51.1074 173.326 51.6195 173.662 52.2783C173.999 52.9372 174.167 53.6927 174.167 54.5449V62H170.106V55.3828C170.106 54.9889 170.038 54.6523 169.902 54.373C169.773 54.0866 169.58 53.8682 169.322 53.7178C169.064 53.5602 168.749 53.4814 168.377 53.4814C168.026 53.4814 167.715 53.5602 167.442 53.7178C167.177 53.8682 166.973 54.0866 166.83 54.373C166.687 54.6595 166.615 55.0033 166.615 55.4043V62Z" fill="#00C3CC"/>
<path d="M84.4746 104.717H68.2246V102.676H84.4746V104.717ZM77.541 103.164H75.0898V98.6816H77.541V103.164ZM82.668 99.043H69.9434V90.3418H82.668V99.043ZM72.4043 97.0898H80.2168V92.3242H72.4043V97.0898ZM91.9355 91.6895C91.9355 92.7702 91.7402 93.7826 91.3496 94.7266C90.9655 95.6641 90.3893 96.4811 89.6211 97.1777C88.8594 97.8743 87.9284 98.3952 86.8281 98.7402L85.5488 96.7871C86.5059 96.5137 87.3099 96.1165 87.9609 95.5957C88.6185 95.0684 89.1035 94.4694 89.416 93.7988C89.735 93.1217 89.8945 92.4186 89.8945 91.6895V90.5469H91.9355V91.6895ZM92.4238 91.6895C92.4238 92.373 92.5801 93.0339 92.8926 93.6719C93.2051 94.3099 93.6803 94.8763 94.3184 95.3711C94.9629 95.8594 95.7507 96.2337 96.6816 96.4941L95.4414 98.4473C94.3477 98.1283 93.4199 97.6367 92.6582 96.9727C91.903 96.3021 91.3366 95.5143 90.959 94.6094C90.5814 93.7044 90.3926 92.7311 90.3926 91.6895V90.5469H92.4238V91.6895ZM96.0078 91.9824H86.2324V90H96.0078V91.9824ZM100.373 98.6719H97.8828V89.0039H100.373V98.6719ZM90.9492 101.074H97.8926V99.4043H100.373V106.602H88.498V99.4043H90.9492V101.074ZM97.8926 104.6V102.998H90.9492V104.6H97.8926ZM116.145 91.7188H104.777V89.7461H116.145V91.7188ZM119.045 97.2656H102.795V95.3125H119.045V97.2656ZM117.121 90.957C117.121 91.8555 117.095 92.6758 117.043 93.418C116.991 94.1536 116.861 94.9805 116.652 95.8984L114.191 95.6641C114.387 94.7721 114.507 93.9876 114.553 93.3105C114.605 92.627 114.634 91.8424 114.641 90.957V89.7461H117.121V90.957ZM117.053 103.486H107.121V105.352H104.631V101.621H114.582V100.439H104.621V98.5254H117.053V103.486ZM117.521 106.66H104.631V104.736H117.521V106.66ZM133.82 90.7227C133.82 92.7083 133.596 94.4889 133.146 96.0645C132.704 97.6335 131.9 99.0983 130.734 100.459C129.576 101.82 127.971 103.037 125.92 104.111L124.553 102.227C126.291 101.315 127.658 100.319 128.654 99.2383C129.657 98.1576 130.363 96.9596 130.773 95.6445C131.19 94.3294 131.398 92.7962 131.398 91.0449V90.7227H133.82ZM132.902 92.7246H125.607V90.7227H132.902V92.7246ZM124.992 97.5977L124.65 95.4883L131.613 95.0879V96.9922L124.992 97.5977ZM139.67 106.797H137.199V89.0039H139.67V106.797ZM138.498 97.8906H133.791V95.8594H138.498V97.8906ZM148.234 106.855H145.734V99.4727H148.234V106.855ZM154.553 106.855H152.062V99.4727H154.553V106.855ZM158.225 100.938H141.975V98.9355H158.225V100.938ZM156.291 97.0312H143.879V89.8633H156.291V97.0312ZM146.33 95.0391H153.801V91.8457H146.33V95.0391ZM174.211 106.797H171.74V89.0039H174.211V106.797ZM162.688 101.758H160.227V90.7129H162.688V101.758ZM161.799 100.293C163.192 100.293 164.602 100.231 166.027 100.107C167.46 99.9772 168.879 99.7786 170.285 99.5117L170.598 101.572C169.133 101.872 167.671 102.087 166.213 102.217C164.761 102.347 163.29 102.412 161.799 102.412H160.227V100.293H161.799ZM179.064 100.771C180.777 100.771 182.261 100.736 183.518 100.664C184.774 100.586 186.063 100.449 187.385 100.254L187.619 102.256C186.33 102.445 185.038 102.575 183.742 102.646C182.447 102.712 180.887 102.751 179.064 102.764H177.521V100.771H179.064ZM186.564 92.5195H180.002V101.396H177.521V90.4883H186.564V92.5195ZM185.832 97.4121H179.436V95.4492H185.832V97.4121ZM191.496 106.797H188.967V89.0039H191.496V106.797Z" fill="#F5F8F8"/>
</g>
<defs>
<filter id="filter0_d_1686_4155" x="506" y="0" width="261" height="151" filterUnits="userSpaceOnUse" color-interpolation-filters="sRGB">
<feFlood flood-opacity="0" result="BackgroundImageFix"/>
<feColorMatrix in="SourceAlpha" type="matrix" values="0 0 0 0 0 0 0 0 0 0 0 0 0 0 0 0 0 0 127 0" result="hardAlpha"/>
<feOffset/>
<feGaussianBlur stdDeviation="5"/>
<feComposite in2="hardAlpha" operator="out"/>
<feColorMatrix type="matrix" values="0 0 0 0 0 0 0 0 0 0 0 0 0 0 0 0 0 0 0.25 0"/>
<feBlend mode="normal" in2="BackgroundImageFix" result="effect1_dropShadow_1686_4155"/>
<feBlend mode="normal" in="SourceGraphic" in2="effect1_dropShadow_1686_4155" result="shape"/>
</filter>
<filter id="filter1_d_1686_4155" x="759" y="0" width="261" height="151" filterUnits="userSpaceOnUse" color-interpolation-filters="sRGB">
<feFlood flood-opacity="0" result="BackgroundImageFix"/>
<feColorMatrix in="SourceAlpha" type="matrix" values="0 0 0 0 0 0 0 0 0 0 0 0 0 0 0 0 0 0 127 0" result="hardAlpha"/>
<feOffset/>
<feGaussianBlur stdDeviation="5"/>
<feComposite in2="hardAlpha" operator="out"/>
<feColorMatrix type="matrix" values="0 0 0 0 0 0 0 0 0 0 0 0 0 0 0 0 0 0 0.25 0"/>
<feBlend mode="normal" in2="BackgroundImageFix" result="effect1_dropShadow_1686_4155"/>
<feBlend mode="normal" in="SourceGraphic" in2="effect1_dropShadow_1686_4155" result="shape"/>
</filter>
<filter id="filter2_d_1686_4155" x="253" y="0" width="261" height="151" filterUnits="userSpaceOnUse" color-interpolation-filters="sRGB">
<feFlood flood-opacity="0" result="BackgroundImageFix"/>
<feColorMatrix in="SourceAlpha" type="matrix" values="0 0 0 0 0 0 0 0 0 0 0 0 0 0 0 0 0 0 127 0" result="hardAlpha"/>
<feOffset/>
<feGaussianBlur stdDeviation="5"/>
<feComposite in2="hardAlpha" operator="out"/>
<feColorMatrix type="matrix" values="0 0 0 0 0 0 0 0 0 0 0 0 0 0 0 0 0 0 0.25 0"/>
<feBlend mode="normal" in2="BackgroundImageFix" result="effect1_dropShadow_1686_4155"/>
<feBlend mode="normal" in="SourceGraphic" in2="effect1_dropShadow_1686_4155" result="shape"/>
</filter>
<filter id="filter3_d_1686_4155" x="1012" y="0" width="261" height="151" filterUnits="userSpaceOnUse" color-interpolation-filters="sRGB">
<feFlood flood-opacity="0" result="BackgroundImageFix"/>
<feColorMatrix in="SourceAlpha" type="matrix" values="0 0 0 0 0 0 0 0 0 0 0 0 0 0 0 0 0 0 127 0" result="hardAlpha"/>
<feOffset/>
<feGaussianBlur stdDeviation="5"/>
<feComposite in2="hardAlpha" operator="out"/>
<feColorMatrix type="matrix" values="0 0 0 0 0 0 0 0 0 0 0 0 0 0 0 0 0 0 0.25 0"/>
<feBlend mode="normal" in2="BackgroundImageFix" result="effect1_dropShadow_1686_4155"/>
<feBlend mode="normal" in="SourceGraphic" in2="effect1_dropShadow_1686_4155" result="shape"/>
</filter>
<filter id="filter4_d_1686_4155" x="0" y="0" width="261" height="151" filterUnits="userSpaceOnUse" color-interpolation-filters="sRGB">
<feFlood flood-opacity="0" result="BackgroundImageFix"/>
<feColorMatrix in="SourceAlpha" type="matrix" values="0 0 0 0 0 0 0 0 0 0 0 0 0 0 0 0 0 0 127 0" result="hardAlpha"/>
<feOffset/>
<feGaussianBlur stdDeviation="5"/>
<feComposite in2="hardAlpha" operator="out"/>
<feColorMatrix type="matrix" values="0 0 0 0 0 0 0 0 0 0 0 0 0 0 0 0 0 0 0.25 0"/>
<feBlend mode="normal" in2="BackgroundImageFix" result="effect1_dropShadow_1686_4155"/>
<feBlend mode="normal" in="SourceGraphic" in2="effect1_dropShadow_1686_4155" result="shape"/>
</filter>
</defs>
</svg>
