<svg width="575" height="208" viewBox="0 0 575 208" fill="none" xmlns="http://www.w3.org/2000/svg">
<path d="M100.921 114.718C100.921 99.5337 111.88 89.3125 127.528 89.3125C143.175 89.3125 153.738 99.1473 153.738 114.62V137.734H139.984V129.903C137.394 135.73 131.812 138.978 124.74 138.978C113.78 138.978 100.921 131.147 100.921 114.718ZM138.788 114.142C138.788 107.358 134.203 102.683 127.425 102.683C120.647 102.683 116.062 107.365 116.062 114.142C116.062 120.919 120.647 125.601 127.425 125.601C134.203 125.601 138.788 120.919 138.788 114.142Z" fill="#222829"/>
<path d="M159.402 119.105V73.8394H174.352V90.5494H197.673V103.442H174.352V119.105C174.352 124.068 176.744 125.6 180.031 125.6C183.317 125.6 185.709 124.074 185.709 119.105V117.671H200.659V119.105C200.659 132.567 192.289 138.971 180.031 138.971C167.773 138.971 159.402 132.573 159.402 119.105Z" fill="#222829"/>
<path d="M205.838 114.142C205.838 99.8152 216.798 89.3125 232.349 89.3125C247.9 89.3125 258.56 99.8152 258.56 114.142V118.156H221.389C222.585 123.695 226.972 126.177 232.349 126.177C236.633 126.177 239.824 125.319 241.717 122.739H257.166C253.975 132.482 244.607 138.971 232.349 138.971C216.804 138.971 205.838 128.469 205.838 114.142ZM243.206 109.08C241.512 104.209 237.528 102.107 232.342 102.107C227.156 102.107 223.173 104.3 221.676 109.08H243.2H243.206Z" fill="#222829"/>
<path d="M345.493 69.9243H360.443V95.6114C363.436 91.5059 367.618 89.3059 372.701 89.3059C383.067 89.3059 394.129 95.9912 394.129 113.277V137.727H379.179V113.277C379.179 105.826 375.393 102.677 369.811 102.677C364.229 102.677 360.443 106.016 360.443 113.277V137.727H345.493V69.9243Z" fill="#222829"/>
<path d="M399.165 114.142C399.165 99.8152 410.124 89.3125 425.676 89.3125C441.227 89.3125 451.886 99.8152 451.886 114.142V118.156H414.716C415.912 123.695 420.298 126.177 425.676 126.177C429.96 126.177 433.151 125.319 435.043 122.739H450.492C447.301 132.482 437.934 138.971 425.676 138.971C410.131 138.971 399.165 128.469 399.165 114.142ZM436.533 109.08C434.839 104.209 430.855 102.107 425.669 102.107C420.483 102.107 416.499 104.3 415.003 109.08H436.526H436.533Z" fill="#222829"/>
<path d="M455.61 114.142C455.61 99.8152 466.57 89.3125 482.122 89.3125C495.773 89.3125 505.742 97.4318 507.833 109.08H492.685C490.99 105.165 487.103 102.683 482.122 102.683C475.343 102.683 470.759 107.365 470.759 114.142C470.759 120.919 475.343 125.601 482.122 125.601C487.103 125.601 490.99 123.119 492.685 119.203H507.833C505.742 130.852 495.773 138.971 482.122 138.971C466.577 138.971 455.61 128.469 455.61 114.142Z" fill="#222829"/>
<path d="M513.573 69.9243H528.523V110.416L544.17 90.55H562.707L542.674 113.664L563.5 137.727H544.566L528.523 117.383V137.727H513.573V69.9243Z" fill="#222829"/>
<path d="M183.583 21.2407L180.645 22.4651L171.305 6.58006L176.662 3.4502L183.583 21.2407Z" fill="#E1EDF0"/>
<path d="M193.642 18.7923L190.314 18.4256L189.808 0.150587L195.726 0L193.642 18.7923Z" fill="#E1EDF0"/>
<path d="M202.388 21.7322L199.907 20.4357L207.697 5.48047L212.507 8.14544L202.388 21.7322Z" fill="#E1EDF0"/>
<path d="M189.87 31.2593C188.838 30.4277 186.624 30.8991 185.524 31.3444C181.855 32.8373 177.461 35.3124 174.25 37.3815C174.223 34.8737 174.038 32.0254 171.011 32.6867C168.483 33.2367 167.964 36.6874 166.925 38.7303C165.641 41.2644 164.52 44.224 165.285 46.9675C166.146 50.0384 169.597 50.7718 171.592 50.7653C175.767 50.7391 181.021 49.4295 183.686 45.9984C184.984 44.3222 184.971 41.2513 184.192 40.0006C186.33 38.6256 190.259 35.4957 190.416 32.7194C190.457 32.0254 190.239 31.5605 189.87 31.2593Z" fill="#E1EDF0"/>
<path d="M167.458 50.7519L167.376 37.6562C136.56 37.6562 99.7112 49.9793 83.3399 76.8712C79.7663 74.9527 75.5163 74.0294 70.8974 74.0294C63.026 74.0294 56.7467 76.9891 52.8588 82.6267C48.971 76.9956 42.6917 74.0294 34.8203 74.0294C21.6672 74.0294 11.5 81.4809 11.5 98.1909V137.727H27.6459V98.1909C27.6459 90.9359 31.3356 88.3561 36.2142 88.3561C41.0928 88.3561 44.7825 90.9359 44.7825 98.1909V137.727H60.9283V98.1909C60.9283 90.9359 64.7137 88.3561 69.4967 88.3561C74.2796 88.3561 78.065 90.9359 78.065 98.1909V137.727H94.2108V98.1909C94.2108 97.8046 94.2108 97.4248 94.1972 97.0516C93.9239 87.6227 97.6067 78.4427 104.802 72.0127C121.931 56.7104 148.9 50.7519 167.458 50.7519Z" fill="#00C3CC"/>
<path d="M196.388 28.8234C197.523 28.1228 199.654 28.8693 200.686 29.4455C204.123 31.3837 208.148 34.376 211.058 36.8249C211.427 34.3367 211.988 31.5408 214.905 32.5688C217.344 33.4266 217.392 36.91 218.144 39.0643C219.073 41.7358 219.797 44.8067 218.663 47.4324C217.392 50.3724 213.88 50.6801 211.899 50.4182C207.765 49.8813 202.729 47.93 200.549 44.1978C199.484 42.3709 199.914 39.3327 200.85 38.1869C198.91 36.5564 195.439 32.9682 195.65 30.1985C195.705 29.5044 195.985 29.0723 196.388 28.8169V28.8234Z" fill="#E1EDF0"/>
<path d="M304.982 124.645C293.919 124.645 286.643 117.003 286.643 106.5C286.643 95.9978 293.919 88.3565 304.982 88.3565C313.154 88.3565 319.235 92.5602 321.825 98.9574H338.866C335.579 84.1528 322.426 74.0298 304.982 74.0298C299.509 74.0298 294.48 75.0316 290.038 76.8519C273.196 50.163 231.516 41.2383 218.11 39.0186L215.78 51.9243C237.098 55.4536 261.361 64.0509 274.221 78.2859C276.933 81.2848 277.37 85.6653 275.211 89.0571C272.061 94.0138 270.305 99.9527 270.305 106.494C270.305 125.214 284.654 138.965 304.989 138.965C322.426 138.965 335.586 128.842 338.872 114.037H321.831C319.242 120.434 313.161 124.638 304.989 124.638L304.982 124.645Z" fill="#00C3CC"/>
<path d="M89.5194 181.058V197.474H98.2074V200.402H85.7514V181.058H89.5194ZM104.279 188.09H106.367V191.018H104.279V200.642H100.511V180.578H104.279V188.09ZM121.858 200.642V191.114L119.53 191.906C119.466 193.554 119.266 194.938 118.93 196.058C118.594 197.178 118.154 198.074 117.61 198.746C117.082 199.434 116.474 199.922 115.786 200.21C115.098 200.498 114.362 200.642 113.578 200.642C112.746 200.642 111.962 200.474 111.226 200.138C110.506 199.818 109.874 199.274 109.33 198.506C108.802 197.738 108.378 196.722 108.058 195.458C107.754 194.194 107.602 192.618 107.602 190.73C107.602 188.858 107.754 187.29 108.058 186.026C108.378 184.746 108.802 183.722 109.33 182.954C109.874 182.186 110.506 181.642 111.226 181.322C111.962 180.986 112.746 180.818 113.578 180.818C114.33 180.818 115.042 180.954 115.714 181.226C116.386 181.498 116.986 181.954 117.514 182.594C118.042 183.218 118.474 184.05 118.81 185.09C119.162 186.13 119.386 187.41 119.482 188.93L121.858 188.114V180.578H125.314V200.642H121.858ZM130.546 200.642H127.066V180.578H130.546V200.642ZM111.034 190.73C111.034 192.154 111.106 193.322 111.25 194.234C111.394 195.13 111.586 195.842 111.826 196.37C112.066 196.882 112.338 197.234 112.642 197.426C112.946 197.618 113.258 197.714 113.578 197.714C113.898 197.714 114.21 197.618 114.514 197.426C114.818 197.234 115.082 196.882 115.306 196.37C115.546 195.842 115.738 195.13 115.882 194.234C116.026 193.322 116.098 192.146 116.098 190.706C116.098 189.298 116.026 188.146 115.882 187.25C115.738 186.338 115.546 185.626 115.306 185.114C115.082 184.586 114.818 184.226 114.514 184.034C114.21 183.842 113.898 183.746 113.578 183.746C113.258 183.746 112.946 183.842 112.642 184.034C112.338 184.226 112.066 184.586 111.826 185.114C111.586 185.626 111.394 186.338 111.25 187.25C111.106 188.146 111.034 189.306 111.034 190.73ZM139.396 200.402V183.986H132.556V181.058H142.852V189.266L145.132 188.474V180.578H148.588V200.642H145.132V191.474L142.852 192.266V200.402H139.396ZM153.82 200.642H150.34V180.578H153.82V200.642ZM210.204 185.066C212.284 185.066 213.836 185.434 214.86 186.17C215.9 186.906 216.42 187.962 216.42 189.338C216.42 190.746 215.9 191.81 214.86 192.53C213.836 193.234 212.284 193.586 210.204 193.586C208.156 193.586 206.612 193.234 205.572 192.53C204.548 191.81 204.036 190.746 204.036 189.338C204.036 187.962 204.548 186.906 205.572 186.17C206.612 185.434 208.156 185.066 210.204 185.066ZM209.004 194.762V198.218H222.996V201.122H205.236V194.762H209.004ZM222.756 188.714V195.626H218.988V180.578H222.756V185.786H224.844V188.714H222.756ZM212.1 181.298H216.996V184.226H203.436V181.298H208.332V179.546H212.1V181.298ZM210.204 187.61C209.548 187.61 208.98 187.738 208.5 187.994C208.036 188.25 207.804 188.698 207.804 189.338C207.804 189.962 208.036 190.41 208.5 190.682C208.964 190.938 209.532 191.066 210.204 191.066C210.524 191.066 210.828 191.034 211.116 190.97C211.42 190.906 211.684 190.81 211.908 190.682C212.132 190.538 212.308 190.362 212.436 190.154C212.58 189.93 212.652 189.658 212.652 189.338C212.652 189.018 212.58 188.754 212.436 188.546C212.308 188.322 212.124 188.146 211.884 188.018C211.66 187.874 211.396 187.77 211.092 187.706C210.804 187.642 210.508 187.61 210.204 187.61ZM251.812 193.082V201.122H233.572V193.082H251.812ZM236.332 183.746V184.898H245.5V187.826H236.332V188.954H245.74V191.882H232.564V180.818H245.5V183.746H236.332ZM251.812 180.578V192.002H248.044V180.578H251.812ZM237.34 195.986V198.218H248.044V195.986H237.34ZM254.582 185.21C254.582 183.754 255.182 182.626 256.382 181.826C257.582 181.01 259.262 180.602 261.422 180.602C263.134 180.602 264.542 180.858 265.646 181.37C266.766 181.882 267.534 182.618 267.95 183.578L270.614 182.978V180.578H274.382V196.322H270.614V185.978L268.07 186.554C267.734 187.61 266.99 188.418 265.838 188.978C264.686 189.538 263.214 189.818 261.422 189.818C259.262 189.818 257.582 189.418 256.382 188.618C255.182 187.802 254.582 186.666 254.582 185.21ZM259.118 195.242V198.218H274.622V201.122H255.35V195.242H259.118ZM259.838 196.61V194.042H254.222V191.114H269.198V194.042H263.606V196.61H259.838ZM258.35 185.21C258.35 185.482 258.438 185.73 258.614 185.954C258.79 186.162 259.022 186.338 259.31 186.482C259.598 186.626 259.926 186.738 260.294 186.818C260.662 186.882 261.038 186.914 261.422 186.914C261.806 186.914 262.182 186.874 262.55 186.794C262.934 186.714 263.27 186.602 263.558 186.458C263.862 186.314 264.102 186.138 264.278 185.93C264.454 185.722 264.542 185.482 264.542 185.21C264.542 184.682 264.246 184.266 263.654 183.962C263.078 183.658 262.334 183.506 261.422 183.506C260.526 183.506 259.79 183.65 259.214 183.938C258.638 184.226 258.35 184.65 258.35 185.21ZM292.489 184.01C292.489 183.642 292.025 183.386 291.097 183.242C290.185 183.098 288.953 183.026 287.401 183.026C285.865 183.026 284.633 183.106 283.705 183.266C282.793 183.41 282.337 183.658 282.337 184.01C282.337 184.378 282.793 184.634 283.705 184.778C284.633 184.922 285.865 184.994 287.401 184.994C288.953 184.994 290.185 184.922 291.097 184.778C292.025 184.634 292.489 184.378 292.489 184.01ZM296.257 184.01C296.257 185.354 295.505 186.306 294.001 186.866C292.497 187.41 290.297 187.682 287.401 187.682C284.505 187.682 282.305 187.41 280.801 186.866C279.313 186.306 278.569 185.354 278.569 184.01C278.569 182.666 279.313 181.722 280.801 181.178C282.305 180.618 284.505 180.338 287.401 180.338C290.297 180.338 292.497 180.618 294.001 181.178C295.505 181.722 296.257 182.666 296.257 184.01ZM277.393 188.93H297.433V191.618H277.393V188.93ZM292.489 195.818V194.978H278.569V192.746H296.257V198.05H282.337V198.89H296.497V201.122H278.569V195.818H292.489ZM319.624 191.234V194.162H305.128V191.234H310.264V190.298C308.68 190.138 307.544 189.802 306.856 189.29C306.184 188.778 305.848 188.106 305.848 187.274C305.848 186.778 305.968 186.338 306.208 185.954C306.448 185.57 306.824 185.25 307.336 184.994C307.848 184.722 308.504 184.522 309.304 184.394C310.12 184.25 311.104 184.178 312.256 184.178C313.408 184.178 314.392 184.25 315.208 184.394C316.04 184.522 316.712 184.722 317.224 184.994C317.736 185.25 318.112 185.57 318.352 185.954C318.592 186.338 318.712 186.778 318.712 187.274C318.712 188.138 318.344 188.834 317.608 189.362C316.888 189.874 315.696 190.194 314.032 190.322V191.234H319.624ZM321.04 201.122V198.386H306.496V195.482H324.808V201.122H321.04ZM324.808 188.714V194.402H321.04V180.578H324.808V185.786H326.896V188.714H324.808ZM314.152 180.866H319.288V183.53H305.248V180.866H310.384V179.546H314.152V180.866ZM314.944 187.274C314.944 187.018 314.704 186.826 314.224 186.698C313.744 186.554 313.088 186.482 312.256 186.482C310.496 186.482 309.616 186.746 309.616 187.274C309.616 187.802 310.496 188.066 312.256 188.066C313.088 188.066 313.744 188.002 314.224 187.874C314.704 187.73 314.944 187.53 314.944 187.274ZM347.859 180.578V194.906H344.091V180.578H347.859ZM333.387 194.282V198.218H348.099V201.122H329.619V194.282H333.387ZM327.891 186.722C327.891 185.762 328.059 184.906 328.395 184.154C328.731 183.386 329.195 182.738 329.787 182.21C330.395 181.682 331.115 181.282 331.947 181.01C332.795 180.722 333.723 180.578 334.731 180.578C335.739 180.578 336.659 180.722 337.491 181.01C338.339 181.282 339.059 181.682 339.651 182.21C340.259 182.738 340.731 183.386 341.067 184.154C341.403 184.906 341.571 185.762 341.571 186.722C341.571 187.666 341.403 188.514 341.067 189.266C340.731 190.018 340.259 190.658 339.651 191.186C339.059 191.714 338.339 192.122 337.491 192.41C336.659 192.698 335.739 192.842 334.731 192.842C333.723 192.842 332.795 192.698 331.947 192.41C331.115 192.122 330.395 191.714 329.787 191.186C329.195 190.658 328.731 190.018 328.395 189.266C328.059 188.514 327.891 187.666 327.891 186.722ZM334.731 189.914C335.131 189.914 335.515 189.842 335.883 189.698C336.267 189.554 336.595 189.346 336.867 189.074C337.155 188.786 337.379 188.45 337.539 188.066C337.715 187.666 337.803 187.218 337.803 186.722C337.803 186.21 337.715 185.754 337.539 185.354C337.379 184.954 337.155 184.618 336.867 184.346C336.595 184.074 336.267 183.866 335.883 183.722C335.515 183.578 335.131 183.506 334.731 183.506C334.315 183.506 333.923 183.578 333.555 183.722C333.187 183.866 332.859 184.074 332.571 184.346C332.299 184.618 332.075 184.954 331.899 185.354C331.739 185.754 331.659 186.21 331.659 186.722C331.659 187.218 331.739 187.666 331.899 188.066C332.075 188.45 332.299 188.786 332.571 189.074C332.859 189.346 333.187 189.554 333.555 189.698C333.923 189.842 334.315 189.914 334.731 189.914ZM363.373 193.802C363.373 195.034 363.205 196.082 362.869 196.946C362.533 197.81 362.077 198.514 361.501 199.058C360.941 199.618 360.285 200.018 359.533 200.258C358.781 200.514 357.989 200.642 357.157 200.642C356.309 200.642 355.509 200.514 354.757 200.258C354.021 200.018 353.373 199.618 352.813 199.058C352.253 198.514 351.805 197.81 351.469 196.946C351.149 196.082 350.989 195.034 350.989 193.802C350.989 192.586 351.149 191.546 351.469 190.682C351.805 189.802 352.253 189.09 352.813 188.546C353.373 188.002 354.021 187.602 354.757 187.346C355.509 187.09 356.309 186.962 357.157 186.962C357.989 186.962 358.781 187.09 359.533 187.346C360.285 187.602 360.941 188.002 361.501 188.546C362.077 189.09 362.533 189.802 362.869 190.682C363.205 191.546 363.373 192.586 363.373 193.802ZM369.709 188.09H371.797V191.018H369.709V200.642H365.941V180.578H369.709V188.09ZM359.053 182.498H363.949V185.426H350.389V182.498H355.285V180.026H359.053V182.498ZM354.733 193.802C354.733 195.05 354.941 196.018 355.357 196.706C355.773 197.378 356.373 197.714 357.157 197.714C357.909 197.714 358.501 197.378 358.933 196.706C359.381 196.034 359.605 195.058 359.605 193.778C359.605 192.53 359.381 191.57 358.933 190.898C358.501 190.226 357.909 189.89 357.157 189.89C356.373 189.89 355.773 190.234 355.357 190.922C354.941 191.594 354.733 192.554 354.733 193.802ZM388.535 183.986H374.615V181.058H392.303V194.954H388.535V183.986ZM373.439 197.714H380.375V188.978H384.143V197.714H393.479V200.642H373.439V197.714ZM401.367 186.722C401.367 185.762 401.519 184.906 401.823 184.154C402.143 183.386 402.583 182.738 403.143 182.21C403.719 181.682 404.415 181.282 405.231 181.01C406.047 180.722 406.959 180.578 407.967 180.578C409.231 180.578 410.335 180.794 411.279 181.226C412.223 181.658 412.975 182.282 413.535 183.098L417.567 182.282V180.578H421.335V194.906H417.567V189.626L413.487 190.394C412.927 191.178 412.175 191.786 411.231 192.218C410.303 192.634 409.215 192.842 407.967 192.842C406.959 192.842 406.047 192.698 405.231 192.41C404.415 192.122 403.719 191.714 403.143 191.186C402.583 190.658 402.143 190.018 401.823 189.266C401.519 188.514 401.367 187.666 401.367 186.722ZM406.863 194.282V198.218H421.575V201.122H403.095V194.282H406.863ZM407.967 189.914C408.783 189.914 409.455 189.634 409.983 189.074C410.527 188.514 410.799 187.73 410.799 186.722C410.799 185.698 410.527 184.906 409.983 184.346C409.455 183.786 408.783 183.506 407.967 183.506C407.151 183.506 406.471 183.786 405.927 184.346C405.399 184.906 405.135 185.698 405.135 186.722C405.135 187.73 405.399 188.514 405.927 189.074C406.471 189.634 407.151 189.914 407.967 189.914ZM414.567 186.722C414.567 186.85 414.559 186.97 414.543 187.082C414.543 187.194 414.535 187.306 414.519 187.418L417.567 186.818V185.09L414.495 185.666C414.543 186.002 414.567 186.354 414.567 186.722ZM440.138 195.098V194.066H425.666V191.57H443.906V197.594H429.434V198.626H444.146V201.122H425.666V195.098H440.138ZM424.658 183.746V180.818H436.394V190.202H432.626V183.746H424.658ZM443.906 180.578V190.49H440.138V188.618L437.114 189.074V186.458L440.138 185.978V184.658L437.114 185.114V182.498L440.138 182.018V180.578H443.906ZM459.42 193.802C459.42 195.034 459.252 196.082 458.916 196.946C458.58 197.81 458.124 198.514 457.548 199.058C456.988 199.618 456.332 200.018 455.58 200.258C454.828 200.514 454.036 200.642 453.204 200.642C452.356 200.642 451.556 200.514 450.804 200.258C450.068 200.018 449.42 199.618 448.86 199.058C448.3 198.514 447.852 197.81 447.516 196.946C447.196 196.082 447.036 195.034 447.036 193.802C447.036 192.586 447.196 191.546 447.516 190.682C447.852 189.802 448.3 189.09 448.86 188.546C449.42 188.002 450.068 187.602 450.804 187.346C451.556 187.09 452.356 186.962 453.204 186.962C454.036 186.962 454.828 187.09 455.58 187.346C456.332 187.602 456.988 188.002 457.548 188.546C458.124 189.09 458.58 189.802 458.916 190.682C459.252 191.546 459.42 192.586 459.42 193.802ZM465.756 188.09H467.844V191.018H465.756V200.642H461.988V180.578H465.756V188.09ZM455.1 182.498H459.996V185.426H446.436V182.498H451.332V180.026H455.1V182.498ZM450.78 193.802C450.78 195.05 450.988 196.018 451.404 196.706C451.82 197.378 452.42 197.714 453.204 197.714C453.956 197.714 454.548 197.378 454.98 196.706C455.428 196.034 455.652 195.058 455.652 193.778C455.652 192.53 455.428 191.57 454.98 190.898C454.548 190.226 453.956 189.89 453.204 189.89C452.42 189.89 451.82 190.234 451.404 190.922C450.988 191.594 450.78 192.554 450.78 193.802ZM482.254 181.058V183.986H473.566V197.474H482.494V200.402H469.798V181.058H482.254ZM488.326 188.09H490.414V191.018H488.326V200.642H484.558V180.578H488.326V188.09Z" fill="#222829"/>
<path d="M176.5 189.506V192.434H166.588V200.618H162.796V181.73H176.956V184.658H166.588V189.506H176.5ZM182.898 181.73V200.618H179.106V181.73H182.898ZM195.518 184.658V200.618H191.726V184.658H185.414V181.73H201.83V184.658H195.518Z" fill="#00C3CC"/>
</svg>
