<svg width="30" height="31" viewBox="0 0 30 31" fill="none" xmlns="http://www.w3.org/2000/svg">
<path d="M18.2409 8.9372L18.8954 8.1812L18.8953 8.1811L18.2409 8.9372ZM15.0203 16.2463L14.2643 15.5918C14.0907 15.7923 14.0039 16.0535 14.0229 16.3181C14.0419 16.5826 14.1653 16.8287 14.3658 17.0024L15.0203 16.2463ZM16.9576 17.9237L17.6122 17.1677L16.9576 17.9237ZM17.4125 24.2492L18.1685 24.9038L18.1685 24.9038L17.4125 24.2492ZM4.21469 18.2398L3.2327 18.0509L3.23268 18.051L4.21469 18.2398ZM5.08604 13.711L4.10406 13.522L4.10405 13.5221L5.08604 13.711ZM8.12877 11.5544L8.276 10.5653L8.27593 10.5653L8.12877 11.5544ZM10.4201 14.3818L9.42194 14.3216C9.39612 14.7494 9.64583 15.1461 10.0428 15.3079C10.4397 15.4696 10.8956 15.3604 11.1761 15.0364L10.4201 14.3818ZM14.9273 9.17617L15.6833 9.83074L14.9273 9.17617ZM18.2409 8.9372L17.5863 9.6932C18.1495 10.1809 18.2108 11.0337 17.7232 11.5969L18.4792 12.2515L19.2352 12.9061C20.4459 11.5078 20.2937 9.39187 18.8954 8.1812L18.2409 8.9372ZM18.4792 12.2515L17.7232 11.5969L14.2643 15.5918L15.0203 16.2463L15.7763 16.9009L19.2352 12.9061L18.4792 12.2515ZM15.0203 16.2463L14.3658 17.0024L16.303 18.6797L16.9576 17.9237L17.6122 17.1677L15.6749 15.4903L15.0203 16.2463ZM16.9576 17.9237L16.303 18.6797C17.7578 19.9392 17.916 22.1398 16.6564 23.5947L17.4125 24.2492L18.1685 24.9038C20.151 22.6139 19.902 19.1503 17.6122 17.1677L16.9576 17.9237ZM17.4125 24.2492L16.6565 23.5946L15.7328 24.6615L16.4888 25.316L17.2448 25.9706L18.1685 24.9038L17.4125 24.2492ZM16.4888 25.316L15.7328 24.6615C13.7675 26.9312 10.334 27.1782 8.06418 25.2129L7.40961 25.9689L6.75504 26.7249C9.85988 29.4132 14.5565 29.0754 17.2448 25.9706L16.4888 25.316ZM7.40961 25.9689L8.06418 25.2129L7.32737 24.575L6.6728 25.331L6.01824 26.087L6.75504 26.7249L7.40961 25.9689ZM6.6728 25.331L7.32737 24.575C5.57037 23.0537 4.75792 20.7105 5.19671 18.4286L4.21469 18.2398L3.23268 18.051C2.65892 21.0348 3.72131 24.0982 6.01824 26.087L6.6728 25.331ZM4.21469 18.2398L5.19668 18.4287L6.06803 13.8999L5.08604 13.711L4.10405 13.5221L3.2327 18.0509L4.21469 18.2398ZM5.08604 13.711L6.06802 13.9C6.23967 13.0081 7.08376 12.4099 7.98162 12.5435L8.12877 11.5544L8.27593 10.5653C6.31765 10.2739 4.47812 11.5784 4.10406 13.522L5.08604 13.711ZM8.12877 11.5544L7.98155 12.5435C8.85047 12.6728 9.47482 13.4454 9.42194 14.3216L10.4201 14.3818L11.4183 14.4421C11.5334 12.5347 10.1742 10.8478 8.276 10.5653L8.12877 11.5544ZM10.4201 14.3818L11.1761 15.0364L15.6833 9.83074L14.9273 9.17617L14.1713 8.5216L9.66412 13.7272L10.4201 14.3818ZM14.9273 9.17617L15.6833 9.83074C16.1711 9.26731 17.0234 9.20602 17.5864 9.6933L18.2409 8.9372L18.8953 8.1811C17.4968 6.97057 15.3816 7.12371 14.1713 8.5216L14.9273 9.17617Z" fill="#F5F8F8"/>
<path d="M18.8535 1L18.188 4.46001" stroke="#F5F8F8" stroke-width="2" stroke-linecap="round"/>
<path d="M25.957 7.15039L22.6278 8.30408" stroke="#F5F8F8" stroke-width="2" stroke-linecap="round"/>
<path d="M23.1738 3.1875L20.8675 5.85121" stroke="#F5F8F8" stroke-width="2" stroke-linecap="round"/>
</svg>
