<svg width="326" height="240" viewBox="0 0 326 240" fill="none" xmlns="http://www.w3.org/2000/svg">
<path d="M0.466796 79.4785C-1.30109 72.0952 4.29577 65 11.8877 65H274.833C280.266 65 284.989 68.726 286.254 74.0091L322.533 225.522C324.301 232.905 318.704 240 311.112 240H48.1667C42.7342 240 38.0107 236.274 36.7457 230.991L0.466796 79.4785Z" fill="#1A858A"/>
<path d="M36 30H314.256C320.742 30 326 35.2579 326 41.7438V228.256C326 234.742 320.742 240 314.256 240H47.7438C41.2579 240 36 234.742 36 228.256V30Z" fill="#A1E6EA"/>
<path d="M36 5.87189C36 2.62893 38.6289 0 41.8719 0H132.74C135.579 0 138.141 1.70405 139.238 4.3226L150 30H36V5.87189Z" fill="#00C3CC"/>
</svg>
